<svg width="91" height="24" viewBox="0 0 91 24" fill="none" xmlns="http://www.w3.org/2000/svg">
<g id="Queezy">
<path d="M16.5334 21.1734C16.7823 21.5645 16.9067 21.9467 16.9067 22.3201C16.9067 22.8001 16.7023 23.2001 16.2934 23.5201C15.9023 23.8401 15.4401 24.0001 14.9067 24.0001C14.5334 24.0001 14.1778 23.9112 13.84 23.7334C13.52 23.5556 13.2623 23.2979 13.0667 22.9601L11.4667 20.2934C11.2534 19.9379 10.9689 19.6801 10.6134 19.5201C10.2578 19.3601 9.77781 19.2801 9.17337 19.2801C7.30669 19.2801 5.68002 18.889 4.29335 18.1067C2.92445 17.3067 1.86667 16.1867 1.12 14.7467C0.373335 13.2889 0 11.5823 0 9.6267C0 7.67114 0.373335 5.97336 1.12 4.53335C1.86667 3.07557 2.92445 1.95556 4.29335 1.17334C5.68002 0.391113 7.30669 0 9.17337 0C11.04 0 12.6578 0.391113 14.0267 1.17334C15.4134 1.95556 16.4801 3.07557 17.2267 4.53335C17.9734 5.97336 18.3467 7.67114 18.3467 9.6267C18.3467 11.6712 17.9378 13.4401 17.1201 14.9334C16.3201 16.409 15.1734 17.5112 13.68 18.2401C14.5512 18.5067 15.2534 19.0756 15.7867 19.9467L16.5334 21.1734ZM9.17337 16.0534C10.7378 16.0534 11.9645 15.5023 12.8534 14.4001C13.76 13.2978 14.2134 11.7067 14.2134 9.6267C14.2134 7.5467 13.7689 5.96447 12.88 4.88002C11.9912 3.77779 10.7556 3.22668 9.17337 3.22668C7.59114 3.22668 6.35558 3.77779 5.46669 4.88002C4.59557 5.96447 4.16002 7.5467 4.16002 9.6267C4.16002 11.7067 4.60446 13.2978 5.49335 14.4001C6.38225 15.5023 7.60892 16.0534 9.17337 16.0534Z" fill="#0C092A"/>
<path d="M31.7897 5.68002C32.4119 5.68002 32.9008 5.84891 33.2564 6.18669C33.6297 6.52447 33.8164 6.98669 33.8164 7.57336V17.3601C33.8164 17.9112 33.6208 18.3556 33.2297 18.6934C32.8564 19.0312 32.3675 19.2001 31.763 19.2001C31.1941 19.2001 30.7408 19.0401 30.403 18.7201C30.0652 18.4001 29.8964 17.9734 29.8964 17.4401V17.1734C29.4875 17.849 28.9452 18.3645 28.2697 18.7201C27.6119 19.0756 26.8652 19.2534 26.0297 19.2534C24.3763 19.2534 23.1408 18.8001 22.323 17.8934C21.523 16.969 21.123 15.5823 21.123 13.7334V7.57336C21.123 6.98669 21.3008 6.52447 21.6563 6.18669C22.0297 5.84891 22.5274 5.68002 23.1497 5.68002C23.7719 5.68002 24.2608 5.84891 24.6163 6.18669C24.9719 6.52447 25.1497 6.98669 25.1497 7.57336V13.8134C25.1497 14.5956 25.3097 15.1734 25.6297 15.5467C25.9675 15.9201 26.4741 16.1067 27.1497 16.1067C27.9319 16.1067 28.563 15.8401 29.043 15.3067C29.5408 14.7734 29.7897 14.0712 29.7897 13.2V7.57336C29.7897 6.98669 29.9675 6.52447 30.323 6.18669C30.6786 5.84891 31.1675 5.68002 31.7897 5.68002Z" fill="#0C092A"/>
<path d="M47.4129 15.1467C47.7684 15.1467 48.0529 15.2889 48.2662 15.5734C48.4973 15.8578 48.6129 16.2223 48.6129 16.6667C48.6129 16.969 48.524 17.2534 48.3462 17.5201C48.1684 17.769 47.9195 17.9823 47.5995 18.1601C46.9951 18.4801 46.2929 18.7467 45.4929 18.9601C44.6929 19.1556 43.9551 19.2534 43.2795 19.2534C41.8573 19.2534 40.6129 18.9778 39.5462 18.4267C38.4973 17.8756 37.6884 17.0934 37.1195 16.0801C36.5506 15.0489 36.2662 13.8401 36.2662 12.4534C36.2662 11.12 36.5417 9.93781 37.0928 8.9067C37.644 7.87559 38.4084 7.07558 39.3862 6.50669C40.364 5.92002 41.4751 5.62669 42.7195 5.62669C43.9106 5.62669 44.9506 5.89336 45.8395 6.42669C46.7462 6.94225 47.4484 7.68892 47.9462 8.6667C48.444 9.6267 48.6929 10.7556 48.6929 12.0534C48.6929 12.4445 48.5951 12.7467 48.3995 12.96C48.2218 13.1556 47.964 13.2534 47.6262 13.2534H40.1595C40.284 14.3023 40.604 15.0667 41.1195 15.5467C41.6351 16.0089 42.3729 16.2401 43.3329 16.2401C43.8484 16.2401 44.3106 16.1778 44.7195 16.0534C45.1284 15.9289 45.5818 15.7601 46.0795 15.5467C46.3284 15.4401 46.5684 15.3512 46.7995 15.2801C47.0307 15.1912 47.2351 15.1467 47.4129 15.1467ZM42.8262 8.40003C42.0617 8.40003 41.4484 8.64892 40.9862 9.1467C40.524 9.6267 40.2484 10.3289 40.1595 11.2534H45.3062C45.2529 10.3111 45.0129 9.60004 44.5862 9.12004C44.1773 8.64003 43.5906 8.40003 42.8262 8.40003Z" fill="#0C092A"/>
<path d="M61.6317 15.1467C61.9872 15.1467 62.2717 15.2889 62.485 15.5734C62.7161 15.8578 62.8317 16.2223 62.8317 16.6667C62.8317 16.969 62.7428 17.2534 62.565 17.5201C62.3872 17.769 62.1383 17.9823 61.8183 18.1601C61.2139 18.4801 60.5117 18.7467 59.7117 18.9601C58.9117 19.1556 58.1739 19.2534 57.4983 19.2534C56.0761 19.2534 54.8317 18.9778 53.765 18.4267C52.7161 17.8756 51.9072 17.0934 51.3383 16.0801C50.7694 15.0489 50.485 13.8401 50.485 12.4534C50.485 11.12 50.7605 9.93781 51.3116 8.9067C51.8628 7.87559 52.6272 7.07558 53.605 6.50669C54.5828 5.92002 55.6939 5.62669 56.9383 5.62669C58.1294 5.62669 59.1694 5.89336 60.0583 6.42669C60.965 6.94225 61.6672 7.68892 62.165 8.6667C62.6628 9.6267 62.9117 10.7556 62.9117 12.0534C62.9117 12.4445 62.8139 12.7467 62.6183 12.96C62.4406 13.1556 62.1828 13.2534 61.845 13.2534H54.3783C54.5028 14.3023 54.8228 15.0667 55.3383 15.5467C55.8539 16.0089 56.5917 16.2401 57.5517 16.2401C58.0672 16.2401 58.5294 16.1778 58.9383 16.0534C59.3472 15.9289 59.8006 15.7601 60.2983 15.5467C60.5472 15.4401 60.7872 15.3512 61.0183 15.2801C61.2495 15.1912 61.4539 15.1467 61.6317 15.1467ZM57.045 8.40003C56.2805 8.40003 55.6672 8.64892 55.205 9.1467C54.7428 9.6267 54.4672 10.3289 54.3783 11.2534H59.525C59.4717 10.3111 59.2317 9.60004 58.805 9.12004C58.3961 8.64003 57.8094 8.40003 57.045 8.40003Z" fill="#0C092A"/>
<path d="M74.8192 16.0267C76.0281 16.0267 76.6326 16.5334 76.6326 17.5467C76.6326 18.5423 76.0281 19.0401 74.8192 19.0401H66.1792C65.6459 19.0401 65.2103 18.8712 64.8725 18.5334C64.5347 18.1956 64.3659 17.7956 64.3659 17.3334C64.3659 16.8001 64.5525 16.3378 64.9258 15.9467L71.1659 8.96003H66.0459C64.837 8.96003 64.2325 8.46225 64.2325 7.46669C64.2325 6.45336 64.837 5.94669 66.0459 5.94669H74.3659C74.917 5.94669 75.3526 6.11558 75.6726 6.45336C76.0103 6.79114 76.1792 7.20003 76.1792 7.68003C76.1792 8.21336 75.9926 8.67559 75.6192 9.0667L69.4059 16.0267H74.8192Z" fill="#0C092A"/>
<path d="M87.3501 6.82669C87.5101 6.45336 87.7323 6.1778 88.0168 6.00002C88.319 5.82224 88.639 5.73336 88.9768 5.73336C89.4923 5.73336 89.9457 5.90225 90.3368 6.24002C90.7279 6.56003 90.9234 6.95114 90.9234 7.41336C90.9234 7.66225 90.8612 7.91114 90.7368 8.16003L83.5634 22.8801C83.3856 23.2534 83.1456 23.529 82.8434 23.7068C82.5412 23.9023 82.2212 24.0001 81.8834 24.0001C81.3856 24.0001 80.9501 23.8401 80.5767 23.5201C80.2034 23.2001 80.0167 22.809 80.0167 22.3468C80.0167 22.0623 80.079 21.7956 80.2034 21.5467L81.9634 17.8934L77.2167 8.16003C77.1101 7.91114 77.0567 7.67114 77.0567 7.44003C77.0567 6.96003 77.2612 6.55114 77.6701 6.21336C78.0967 5.87558 78.5767 5.70669 79.1101 5.70669C79.4656 5.70669 79.7945 5.80447 80.0967 6.00002C80.399 6.1778 80.639 6.45336 80.8167 6.82669L84.1234 14.0267L87.3501 6.82669Z" fill="#0C092A"/>
</g>
</svg>
