<svg width="39" height="38" viewBox="0 0 39 38" fill="none" xmlns="http://www.w3.org/2000/svg">
<g clip-path="url(#clip0_2726_72611)">
<rect x="0.905701" width="37.3333" height="37.3333" rx="18.6667" fill="#C4D0FB"/>
<circle cx="19.5724" cy="18.6667" r="18.6667" fill="#FFD6DD"/>
<path fill-rule="evenodd" clip-rule="evenodd" d="M19.5724 9.24851C15.6361 9.24851 12.4451 12.4395 12.4451 16.3758V17.1605C11.7228 17.2817 11.1724 17.9099 11.1724 18.6667V20.4485C11.1724 21.2188 11.7426 21.8559 12.4839 21.9607C12.747 24.4814 14.324 26.6113 16.5178 27.6535V30.0132C11.1207 30.3419 6.84509 34.8231 6.84509 40.303H32.2996C32.2996 34.8231 28.0241 30.3419 22.6269 30.0132V27.6535C24.8208 26.6114 26.3977 24.4814 26.6608 21.9607C27.4021 21.8559 27.9724 21.2188 27.9724 20.4485V18.6667C27.9724 17.9099 27.422 17.2817 26.6997 17.1605V16.3758C26.6997 12.4395 23.5087 9.24851 19.5724 9.24851Z" fill="#D0C6AC"/>
<mask id="mask0_2726_72611" style="mask-type:luminance" maskUnits="userSpaceOnUse" x="6" y="9" width="27" height="32">
<path fill-rule="evenodd" clip-rule="evenodd" d="M19.5724 9.24851C15.6361 9.24851 12.4451 12.4395 12.4451 16.3758V17.1605C11.7228 17.2817 11.1724 17.9099 11.1724 18.6667V20.4485C11.1724 21.2188 11.7426 21.8559 12.4839 21.9607C12.747 24.4814 14.324 26.6113 16.5178 27.6535V30.0132C11.1207 30.3419 6.84509 34.8231 6.84509 40.303H32.2996C32.2996 34.8231 28.0241 30.3419 22.6269 30.0132V27.6535C24.8208 26.6114 26.3977 24.4814 26.6608 21.9607C27.4021 21.8559 27.9724 21.2188 27.9724 20.4485V18.6667C27.9724 17.9099 27.422 17.2817 26.6997 17.1605V16.3758C26.6997 12.4395 23.5087 9.24851 19.5724 9.24851Z" fill="white"/>
</mask>
<g mask="url(#mask0_2726_72611)">
<rect x="2.77234" y="9.24851" width="33.6" height="31.0545" fill="#D08B5B"/>
<path fill-rule="evenodd" clip-rule="evenodd" d="M12.4451 21.2122V22.2305C12.4451 26.1668 15.6361 29.3577 19.5723 29.3577C23.5086 29.3577 26.6996 26.1668 26.6996 22.2305V21.2122C26.6996 25.1485 23.5086 28.3395 19.5723 28.3395C15.6361 28.3395 12.4451 25.1485 12.4451 21.2122Z" fill="black" fill-opacity="0.1"/>
</g>
<path fill-rule="evenodd" clip-rule="evenodd" d="M19.5724 33.5641C21.4702 33.5641 23.0087 32.1396 23.0087 30.3823C23.0087 30.2693 23.0024 30.1577 22.9899 30.0477C28.2141 30.5472 32.2996 34.948 32.2996 40.303H6.84509C6.84509 34.948 10.9307 30.5472 16.1548 30.0477C16.1423 30.1577 16.136 30.2693 16.136 30.3823C16.136 32.1396 17.6745 33.5641 19.5724 33.5641Z" fill="#909292"/>
<mask id="mask1_2726_72611" style="mask-type:luminance" maskUnits="userSpaceOnUse" x="6" y="30" width="27" height="11">
<path fill-rule="evenodd" clip-rule="evenodd" d="M19.5724 33.5641C21.4702 33.5641 23.0087 32.1396 23.0087 30.3823C23.0087 30.2693 23.0024 30.1577 22.9899 30.0477C28.2141 30.5472 32.2996 34.948 32.2996 40.303H6.84509C6.84509 34.948 10.9307 30.5472 16.1548 30.0477C16.1423 30.1577 16.136 30.2693 16.136 30.3823C16.136 32.1396 17.6745 33.5641 19.5724 33.5641Z" fill="white"/>
</mask>
<g mask="url(#mask1_2726_72611)">
<rect x="2.77234" y="26.303" width="33.6" height="14" fill="#909292"/>
</g>
<path fill-rule="evenodd" clip-rule="evenodd" d="M23.5991 40.3031C24.0319 38.7656 24.2815 36.9569 24.2815 35.0213C24.2815 33.252 24.073 31.5887 23.7066 30.1417C28.5829 30.956 32.2996 35.1955 32.2996 40.3031H23.5991ZM15.6729 40.3031H6.84509C6.84509 35.1493 10.6294 30.8794 15.5709 30.1205C15.2011 31.5724 14.9906 33.2433 14.9906 35.0213C14.9906 36.9569 15.2401 38.7656 15.6729 40.3031Z" fill="#0C1626"/>
<path fill-rule="evenodd" clip-rule="evenodd" d="M25.8087 37.2484L26.1751 36.9737C26.8605 36.4596 27.8052 36.4679 28.4814 36.9939L25.8087 37.2484Z" fill="#E6E6E6"/>
<path fill-rule="evenodd" clip-rule="evenodd" d="M15.6269 29.8667C14.8633 33.5576 16.2633 40.303 16.2633 40.303H14.2269L12.4451 35.7212L13.2087 34.5758L12.4451 33.8121L14.8633 29.9939C14.8633 29.9939 15.2503 29.8735 15.6269 29.8667Z" fill="#0C092A"/>
<path fill-rule="evenodd" clip-rule="evenodd" d="M23.5178 29.8667C24.2814 33.5576 22.8814 40.303 22.8814 40.303H24.9178L26.6996 35.7212L25.9359 34.5758L26.6996 33.8121L24.2814 29.9939C24.2814 29.9939 23.8943 29.8735 23.5178 29.8667Z" fill="#0C092A"/>
<path fill-rule="evenodd" clip-rule="evenodd" d="M16.5178 29.0443C15.6559 29.6294 15.1178 30.4592 15.1178 31.3796C15.1178 32.3215 15.6814 33.1687 16.5789 33.7556L17.335 33.1599L17.9178 33.2021L17.7906 32.8011L17.8004 32.7933C17.024 32.3933 16.5178 31.7376 16.5178 30.9964H16.5178V29.0443ZM22.6269 30.9881C22.6269 30.9908 22.6269 30.9936 22.6269 30.9964C22.6269 31.7375 22.1207 32.3933 21.3443 32.7933L21.3543 32.8012L21.3542 32.8011L21.2269 33.2021L21.8097 33.1599L22.5659 33.7556C23.4633 33.1686 24.0269 32.3215 24.0269 31.3796C24.0269 30.4592 23.4888 29.6293 22.6269 29.0443V30.9881Z" fill="#0C092A"/>
<path d="M17.7905 23.7575C17.7905 24.4412 18.5743 24.903 19.5723 24.903C20.5704 24.903 21.3542 24.4412 21.3542 23.7575C21.3542 23.6169 21.2333 23.503 21.0996 23.503C20.9351 23.503 20.8616 23.6182 20.8451 23.7575C20.6869 24.1314 20.2957 24.3578 19.5723 24.3939C18.849 24.3578 18.4577 24.1314 18.2996 23.7575C18.283 23.6182 18.2096 23.503 18.0451 23.503C17.9114 23.503 17.7905 23.6169 17.7905 23.7575Z" fill="#0C092A"/>
<path fill-rule="evenodd" clip-rule="evenodd" d="M18.0451 21.2121C18.0451 21.7744 18.7289 22.2302 19.5724 22.2302C20.4159 22.2302 21.0996 21.7744 21.0996 21.2121" fill="black" fill-opacity="0.16"/>
<ellipse cx="16.2633" cy="18.9211" rx="0.763636" ry="0.763636" fill="#0C092A"/>
<ellipse cx="22.8814" cy="18.9211" rx="0.763637" ry="0.763636" fill="#0C092A"/>
<path d="M14.4343 17.2867C14.9326 16.5856 16.2986 16.1925 17.4752 16.4814C17.6118 16.515 17.7496 16.4315 17.7831 16.2949C17.8167 16.1584 17.7332 16.0206 17.5967 15.987C16.2302 15.6515 14.6484 16.1067 14.0194 16.9918C13.9379 17.1064 13.9648 17.2653 14.0794 17.3468C14.194 17.4282 14.3529 17.4013 14.4343 17.2867Z" fill="#0C092A"/>
<path d="M24.7103 17.2867C24.2121 16.5856 22.8461 16.1925 21.6694 16.4814C21.5329 16.515 21.395 16.4315 21.3615 16.2949C21.328 16.1584 21.4115 16.0206 21.548 15.987C22.9145 15.6515 24.4963 16.1067 25.1253 16.9918C25.2067 17.1064 25.1798 17.2653 25.0653 17.3468C24.9507 17.4282 24.7917 17.4013 24.7103 17.2867Z" fill="#0C092A"/>
<mask id="mask2_2726_72611" style="mask-type:luminance" maskUnits="userSpaceOnUse" x="2" y="4" width="35" height="37">
<rect x="2.77234" y="4.66667" width="33.6" height="35.6364" fill="white"/>
</mask>
<g mask="url(#mask2_2726_72611)">
<path fill-rule="evenodd" clip-rule="evenodd" d="M19.6366 25.7737C18.1715 25.8219 17.518 26.5221 17.0258 25.8105C16.6564 25.2763 16.8109 24.3779 17.1561 23.8725C17.6472 23.1532 18.3135 23.5011 19.0585 23.4191C19.2611 23.3968 19.4646 23.3405 19.6366 23.2485C19.8086 23.3405 20.0121 23.3968 20.2146 23.4191C20.9597 23.5011 21.6259 23.1532 22.1171 23.8725C22.4622 24.3779 22.6168 25.2763 22.2474 25.8105C21.7552 26.5221 21.1017 25.7256 19.6366 25.7737ZM26.7494 17.1394C26.3135 18.9308 26.1133 20.7583 25.7972 22.5703C25.7314 22.948 25.6593 23.3244 25.5827 23.7003C25.5667 23.7792 25.5508 24.0723 25.473 24.1094C25.2374 24.222 24.7573 23.6236 24.6289 23.4884C24.3065 23.1492 23.9868 22.8068 23.5941 22.5405C22.8006 22.0026 21.8716 21.6844 20.9049 21.609C20.5004 21.5773 19.9535 21.6325 19.5723 21.8626C19.1912 21.6325 18.6443 21.5773 18.2398 21.609C17.2731 21.6844 16.3441 22.0026 15.5506 22.5405C15.1579 22.8068 14.8382 23.1492 14.5157 23.4884C14.3873 23.6236 13.9072 24.222 13.6716 24.1094C13.5938 24.0723 13.578 23.7792 13.5619 23.7003C13.4854 23.3244 13.4133 22.948 13.3474 22.5703C13.0314 20.7583 12.8312 18.9308 12.3953 17.1394C12.2685 17.1394 12.1572 19.5255 12.1431 19.7478C12.0855 20.6508 12.0182 21.5336 12.1042 22.4373C12.2523 23.9962 12.4068 25.951 13.5947 27.1415C14.668 28.2172 16.2264 28.4421 17.5705 29.1211C17.7435 29.2085 17.9731 29.3164 18.2207 29.4048C18.4815 29.6038 18.9987 29.7394 19.5945 29.7394C20.2195 29.7394 20.7579 29.5902 21.0047 29.3752C21.2211 29.293 21.4201 29.1989 21.5741 29.1211C22.9182 28.4419 24.4766 28.2172 25.55 27.1415C26.7378 25.951 26.8923 23.9962 27.0405 22.4373C27.1264 21.5336 27.0592 20.6508 27.0016 19.7478C26.9874 19.5255 26.8761 17.1394 26.7494 17.1394Z" fill="#0C092A"/>
<mask id="mask3_2726_72611" style="mask-type:luminance" maskUnits="userSpaceOnUse" x="12" y="17" width="16" height="13">
<path fill-rule="evenodd" clip-rule="evenodd" d="M19.6366 25.7737C18.1715 25.8219 17.518 26.5221 17.0258 25.8105C16.6564 25.2763 16.8109 24.3779 17.1561 23.8725C17.6472 23.1532 18.3135 23.5011 19.0585 23.4191C19.2611 23.3968 19.4646 23.3405 19.6366 23.2485C19.8086 23.3405 20.0121 23.3968 20.2146 23.4191C20.9597 23.5011 21.6259 23.1532 22.1171 23.8725C22.4622 24.3779 22.6168 25.2763 22.2474 25.8105C21.7552 26.5221 21.1017 25.7256 19.6366 25.7737ZM26.7494 17.1394C26.3135 18.9308 26.1133 20.7583 25.7972 22.5703C25.7314 22.948 25.6593 23.3244 25.5827 23.7003C25.5667 23.7792 25.5508 24.0723 25.473 24.1094C25.2374 24.222 24.7573 23.6236 24.6289 23.4884C24.3065 23.1492 23.9868 22.8068 23.5941 22.5405C22.8006 22.0026 21.8716 21.6844 20.9049 21.609C20.5004 21.5773 19.9535 21.6325 19.5723 21.8626C19.1912 21.6325 18.6443 21.5773 18.2398 21.609C17.2731 21.6844 16.3441 22.0026 15.5506 22.5405C15.1579 22.8068 14.8382 23.1492 14.5157 23.4884C14.3873 23.6236 13.9072 24.222 13.6716 24.1094C13.5938 24.0723 13.578 23.7792 13.5619 23.7003C13.4854 23.3244 13.4133 22.948 13.3474 22.5703C13.0314 20.7583 12.8312 18.9308 12.3953 17.1394C12.2685 17.1394 12.1572 19.5255 12.1431 19.7478C12.0855 20.6508 12.0182 21.5336 12.1042 22.4373C12.2523 23.9962 12.4068 25.951 13.5947 27.1415C14.668 28.2172 16.2264 28.4421 17.5705 29.1211C17.7435 29.2085 17.9731 29.3164 18.2207 29.4048C18.4815 29.6038 18.9987 29.7394 19.5945 29.7394C20.2195 29.7394 20.7579 29.5902 21.0047 29.3752C21.2211 29.293 21.4201 29.1989 21.5741 29.1211C22.9182 28.4419 24.4766 28.2172 25.55 27.1415C26.7378 25.951 26.8923 23.9962 27.0405 22.4373C27.1264 21.5336 27.0592 20.6508 27.0016 19.7478C26.9874 19.5255 26.8761 17.1394 26.7494 17.1394Z" fill="white"/>
</mask>
<g mask="url(#mask3_2726_72611)">
<rect x="8.88147" y="13.8303" width="21.3818" height="19.3455" fill="#0C092A"/>
</g>
<path fill-rule="evenodd" clip-rule="evenodd" d="M14.6409 11.2875C14.6566 11.2806 14.6178 11.278 14.5244 11.2796C14.6379 11.2793 14.6767 11.282 14.6409 11.2875ZM13.6056 9.28676C13.6053 9.28427 13.6077 9.306 13.6056 9.28676V9.28676ZM27.3061 13.6731C27.2725 13.251 27.213 12.8314 27.1129 12.4189C27.0334 12.0911 26.9248 11.7783 26.7964 11.4655C26.7189 11.2766 26.5377 11.017 26.5164 10.8132C26.4955 10.6124 26.6521 10.39 26.6856 10.1562C26.718 9.92867 26.7125 9.68945 26.6658 9.46401C26.5598 8.95201 26.2084 8.47589 25.6659 8.34242C25.5447 8.31261 25.2887 8.34935 25.2031 8.27881C25.1049 8.19791 25.0366 7.92233 24.9477 7.81179C24.6944 7.49667 24.2993 7.29374 23.8826 7.36449C23.5758 7.41656 23.752 7.48001 23.5219 7.29943C23.394 7.19903 23.2984 7.04574 23.1742 6.93705C22.9875 6.77378 22.7733 6.63401 22.5516 6.51931C21.9717 6.2192 21.3102 6.00105 20.6624 5.89472C19.4806 5.70073 18.2194 5.86985 17.0739 6.17718C16.5039 6.33011 15.93 6.52418 15.4007 6.78083C15.1737 6.89088 15.0426 6.98216 14.806 7.01098C14.4332 7.05637 14.1175 7.05411 13.7645 7.21218C12.678 7.69862 12.1887 8.82712 12.6114 9.90706C12.6965 10.1243 12.8116 10.315 12.9703 10.4904C13.1639 10.7043 13.2339 10.6622 13.0672 10.9082C12.8179 11.276 12.6077 11.6682 12.4366 12.0755C11.9875 13.1448 11.9123 14.3492 11.9416 15.4895C11.9518 15.8888 11.969 16.2929 12.0319 16.6883C12.0591 16.8595 12.0667 17.1813 12.1951 17.3082C12.2602 17.3726 12.353 17.4086 12.4456 17.3829C12.6632 17.3226 12.5883 17.1621 12.5934 17.013C12.6188 16.2642 12.5845 15.6018 12.7626 14.862C12.8941 14.3154 13.1134 13.819 13.3975 13.3302C13.7588 12.7086 14.1488 12.1627 14.6456 11.6304C14.7624 11.5052 14.7879 11.4522 14.9446 11.4431C15.0632 11.4362 15.2367 11.5175 15.352 11.5456C15.6063 11.6076 15.861 11.6688 16.1199 11.7106C16.5959 11.7873 17.0672 11.7924 17.5475 11.7774C18.4927 11.7478 19.4419 11.6815 20.3583 11.4435C20.9669 11.2855 21.5065 11.0018 22.0895 10.7938C22.0999 10.7901 22.246 10.686 22.2716 10.6902C22.3073 10.6961 22.5232 10.9226 22.5596 10.9511C22.8429 11.1733 23.1536 11.2665 23.4595 11.4386C23.8367 11.6506 23.4714 11.3471 23.6794 11.6115C23.7401 11.6885 23.7711 11.8312 23.8197 11.9184C23.9745 12.1962 24.1898 12.4404 24.4473 12.6341C24.6961 12.8213 25.0701 12.9117 25.197 13.1553C25.2948 13.3433 25.3278 13.5988 25.4067 13.7994C25.6139 14.3257 25.8874 14.8165 26.1609 15.3122C26.3813 15.7117 26.6223 16.0607 26.6468 16.5172C26.6553 16.6761 26.5042 17.6293 26.8724 17.3394C26.927 17.2964 27.0448 16.8104 27.069 16.728C27.1671 16.3929 27.202 16.0431 27.2464 15.6988C27.3348 15.0142 27.3639 14.3627 27.3061 13.6731Z" fill="#28354B"/>
<mask id="mask4_2726_72611" style="mask-type:luminance" maskUnits="userSpaceOnUse" x="11" y="5" width="17" height="13">
<path fill-rule="evenodd" clip-rule="evenodd" d="M14.6409 11.2875C14.6566 11.2806 14.6177 11.278 14.5244 11.2796C14.6378 11.2793 14.6767 11.282 14.6409 11.2875ZM13.6055 9.28676C13.6052 9.28427 13.6076 9.306 13.6055 9.28676V9.28676ZM27.3061 13.6731C27.2725 13.251 27.2129 12.8314 27.1128 12.4189C27.0333 12.0911 26.9248 11.7783 26.7963 11.4655C26.7188 11.2766 26.5377 11.017 26.5164 10.8132C26.4954 10.6124 26.6521 10.39 26.6855 10.1562C26.718 9.92867 26.7125 9.68945 26.6658 9.46401C26.5598 8.95201 26.2084 8.47589 25.6658 8.34242C25.5447 8.31261 25.2886 8.34935 25.203 8.27881C25.1048 8.19791 25.0365 7.92233 24.9477 7.81179C24.6943 7.49667 24.2992 7.29374 23.8825 7.36449C23.5757 7.41656 23.7519 7.48001 23.5219 7.29943C23.394 7.19903 23.2984 7.04574 23.1742 6.93705C22.9874 6.77378 22.7732 6.63401 22.5516 6.51931C21.9716 6.2192 21.3102 6.00105 20.6623 5.89472C19.4806 5.70073 18.2193 5.86985 17.0738 6.17718C16.5038 6.33011 15.93 6.52418 15.4006 6.78083C15.1736 6.89088 15.0426 6.98216 14.8059 7.01098C14.4332 7.05637 14.1175 7.05411 13.7644 7.21218C12.678 7.69862 12.1886 8.82712 12.6114 9.90706C12.6964 10.1243 12.8116 10.315 12.9703 10.4904C13.1638 10.7043 13.2338 10.6622 13.0671 10.9082C12.8178 11.276 12.6077 11.6682 12.4366 12.0755C11.9874 13.1448 11.9123 14.3492 11.9415 15.4895C11.9518 15.8888 11.9689 16.2929 12.0318 16.6883C12.059 16.8595 12.0666 17.1813 12.195 17.3082C12.2602 17.3726 12.3529 17.4086 12.4455 17.3829C12.6631 17.3226 12.5883 17.1621 12.5933 17.013C12.6188 16.2642 12.5844 15.6018 12.7625 14.862C12.8941 14.3154 13.1133 13.819 13.3974 13.3302C13.7587 12.7086 14.1487 12.1627 14.6455 11.6304C14.7624 11.5052 14.7879 11.4522 14.9445 11.4431C15.0631 11.4362 15.2366 11.5175 15.352 11.5456C15.6062 11.6076 15.861 11.6688 16.1199 11.7106C16.5958 11.7873 17.0672 11.7924 17.5474 11.7774C18.4926 11.7478 19.4419 11.6815 20.3583 11.4435C20.9669 11.2855 21.5064 11.0018 22.0894 10.7938C22.0998 10.7901 22.2459 10.686 22.2715 10.6902C22.3073 10.6961 22.5231 10.9226 22.5596 10.9511C22.8428 11.1733 23.1535 11.2665 23.4594 11.4386C23.8366 11.6506 23.4713 11.3471 23.6794 11.6115C23.74 11.6885 23.771 11.8312 23.8197 11.9184C23.9744 12.1962 24.1897 12.4404 24.4473 12.6341C24.6961 12.8213 25.07 12.9117 25.1969 13.1553C25.2948 13.3433 25.3277 13.5988 25.4067 13.7994C25.6138 14.3257 25.8873 14.8165 26.1609 15.3122C26.3812 15.7117 26.6223 16.0607 26.6468 16.5172C26.6553 16.6761 26.5041 17.6293 26.8724 17.3394C26.927 17.2964 27.0447 16.8104 27.0689 16.728C27.167 16.3929 27.2019 16.0431 27.2464 15.6988C27.3348 15.0142 27.3638 14.3627 27.3061 13.6731Z" fill="white"/>
</mask>
<g mask="url(#mask4_2726_72611)">
<rect x="2.77234" y="4.66667" width="33.6" height="35.6364" fill="#0C092A"/>
</g>
</g>
</g>
<defs>
<clipPath id="clip0_2726_72611">
<rect x="0.905701" width="37.3333" height="37.3333" rx="18.6667" fill="white"/>
</clipPath>
</defs>
</svg>
