<svg width="152" height="40" viewBox="0 0 152 40" fill="none" xmlns="http://www.w3.org/2000/svg">
<rect width="152" height="40" rx="20" fill="#EFEEFC"/>
<g clip-path="url(#clip0_385_5616)">
<path d="M24 22C25.1046 22 26 21.1046 26 20C26 18.8954 25.1046 18 24 18C22.8954 18 22 18.8954 22 20C22 21.1046 22.8954 22 24 22Z" stroke="#6A5AE0" stroke-width="2.25" stroke-linecap="round" stroke-linejoin="round"/>
<path d="M24 26V26.0067" stroke="#6A5AE0" stroke-width="2.25" stroke-linecap="round" stroke-linejoin="round"/>
<path d="M18 18V18.0067" stroke="#6A5AE0" stroke-width="2" stroke-linecap="round" stroke-linejoin="round"/>
<path d="M30 18V18.0067" stroke="#6A5AE0" stroke-width="2" stroke-linecap="round" stroke-linejoin="round"/>
<path d="M21.3333 25.4C20.4236 24.9563 19.6408 24.2896 19.058 23.462C18.4752 22.6344 18.1112 21.6728 18 20.6667" stroke="#6A5AE0" stroke-width="2" stroke-linecap="round" stroke-linejoin="round"/>
<path d="M26.6666 25.4C27.5764 24.9563 28.3591 24.2896 28.9419 23.462C29.5248 22.6344 29.8887 21.6728 30 20.6667" stroke="#6A5AE0" stroke-width="2" stroke-linecap="round" stroke-linejoin="round"/>
<path d="M20.1333 15.3333C21.2054 14.456 22.548 13.9766 23.9333 13.9766C25.3186 13.9766 26.6612 14.456 27.7333 15.3333" stroke="#6A5AE0" stroke-width="2" stroke-linecap="round" stroke-linejoin="round"/>
</g>
<path d="M41.7961 25C41.6894 25 41.5987 24.9627 41.5241 24.888C41.4494 24.8133 41.4121 24.7227 41.4121 24.616V14.2C41.4121 14.0827 41.4494 13.9867 41.5241 13.912C41.5987 13.8373 41.6894 13.8 41.7961 13.8H48.7401C48.8574 13.8 48.9534 13.8373 49.0281 13.912C49.1027 13.9867 49.1401 14.0827 49.1401 14.2V15.32C49.1401 15.4373 49.1027 15.5333 49.0281 15.608C48.9534 15.672 48.8574 15.704 48.7401 15.704H43.6041V18.744H48.4201C48.5374 18.744 48.6334 18.7813 48.7081 18.856C48.7827 18.9307 48.8201 19.0267 48.8201 19.144V20.264C48.8201 20.3707 48.7827 20.4613 48.7081 20.536C48.6334 20.6107 48.5374 20.648 48.4201 20.648H43.6041V24.616C43.6041 24.7227 43.5667 24.8133 43.4921 24.888C43.4174 24.9627 43.3214 25 43.2041 25H41.7961ZM51.3541 25C51.2474 25 51.1567 24.9627 51.0821 24.888C51.0074 24.8133 50.9701 24.7227 50.9701 24.616V17.064C50.9701 16.9573 51.0074 16.8667 51.0821 16.792C51.1567 16.7173 51.2474 16.68 51.3541 16.68H52.6821C52.7994 16.68 52.8901 16.7173 52.9541 16.792C53.0287 16.8667 53.0661 16.9573 53.0661 17.064V24.616C53.0661 24.7227 53.0287 24.8133 52.9541 24.888C52.8901 24.9627 52.7994 25 52.6821 25H51.3541ZM51.2901 15.304C51.1727 15.304 51.0767 15.272 51.0021 15.208C50.9381 15.1333 50.9061 15.0373 50.9061 14.92V13.768C50.9061 13.6613 50.9381 13.5707 51.0021 13.496C51.0767 13.4213 51.1727 13.384 51.2901 13.384H52.7461C52.8634 13.384 52.9594 13.4213 53.0341 13.496C53.1087 13.5707 53.1461 13.6613 53.1461 13.768V14.92C53.1461 15.0373 53.1087 15.1333 53.0341 15.208C52.9594 15.272 52.8634 15.304 52.7461 15.304H51.2901ZM55.9009 25C55.7943 25 55.7036 24.9627 55.6289 24.888C55.5543 24.8133 55.5169 24.7227 55.5169 24.616V17.064C55.5169 16.9573 55.5543 16.8667 55.6289 16.792C55.7036 16.7173 55.7943 16.68 55.9009 16.68H57.2129C57.3196 16.68 57.4103 16.7173 57.4849 16.792C57.5596 16.8667 57.5969 16.9573 57.5969 17.064V17.72C57.8743 17.3787 58.2263 17.096 58.6529 16.872C59.0903 16.6373 59.6289 16.52 60.2689 16.52C60.9196 16.52 61.4849 16.6693 61.9649 16.968C62.4449 17.256 62.8129 17.6667 63.0689 18.2C63.3356 18.7333 63.4689 19.3733 63.4689 20.12V24.616C63.4689 24.7227 63.4316 24.8133 63.3569 24.888C63.2823 24.9627 63.1916 25 63.0849 25H61.6769C61.5703 25 61.4796 24.9627 61.4049 24.888C61.3303 24.8133 61.2929 24.7227 61.2929 24.616V20.216C61.2929 19.5973 61.1383 19.112 60.8289 18.76C60.5303 18.408 60.0929 18.232 59.5169 18.232C58.9623 18.232 58.5196 18.408 58.1889 18.76C57.8583 19.112 57.6929 19.5973 57.6929 20.216V24.616C57.6929 24.7227 57.6556 24.8133 57.5809 24.888C57.5063 24.9627 57.4156 25 57.3089 25H55.9009ZM68.5893 25.16C68.0346 25.16 67.544 25.0693 67.1173 24.888C66.7013 24.696 66.3546 24.4293 66.0773 24.088C65.8 23.7467 65.5866 23.3467 65.4373 22.888C65.288 22.4187 65.2026 21.9067 65.1813 21.352C65.1706 21.16 65.1653 20.9893 65.1653 20.84C65.1653 20.68 65.1706 20.504 65.1813 20.312C65.2026 19.7787 65.2826 19.2827 65.4213 18.824C65.5706 18.3653 65.784 17.9653 66.0613 17.624C66.3493 17.272 66.7013 17 67.1173 16.808C67.544 16.616 68.0346 16.52 68.5893 16.52C69.1653 16.52 69.6506 16.6213 70.0453 16.824C70.4506 17.016 70.7866 17.2667 71.0533 17.576V14.024C71.0533 13.9173 71.0853 13.8267 71.1493 13.752C71.224 13.6773 71.32 13.64 71.4373 13.64H72.7973C72.904 13.64 72.9946 13.6773 73.0693 13.752C73.144 13.8267 73.1813 13.9173 73.1813 14.024V24.616C73.1813 24.7227 73.144 24.8133 73.0693 24.888C72.9946 24.9627 72.904 25 72.7973 25H71.5333C71.416 25 71.32 24.9627 71.2453 24.888C71.1813 24.8133 71.1493 24.7227 71.1493 24.616V24.024C70.8826 24.3547 70.5413 24.6267 70.1253 24.84C69.72 25.0533 69.208 25.16 68.5893 25.16ZM69.1813 23.448C69.6293 23.448 69.9866 23.3467 70.2533 23.144C70.52 22.9413 70.7173 22.6853 70.8453 22.376C70.9733 22.056 71.0426 21.7307 71.0533 21.4C71.064 21.208 71.0693 21.0053 71.0693 20.792C71.0693 20.568 71.064 20.36 71.0533 20.168C71.0426 19.848 70.968 19.544 70.8293 19.256C70.6906 18.9573 70.488 18.712 70.2213 18.52C69.9546 18.328 69.608 18.232 69.1813 18.232C68.7333 18.232 68.376 18.3333 68.1093 18.536C67.8533 18.728 67.6666 18.984 67.5493 19.304C67.432 19.624 67.3626 19.976 67.3413 20.36C67.3306 20.68 67.3306 21 67.3413 21.32C67.3626 21.704 67.432 22.056 67.5493 22.376C67.6666 22.696 67.8533 22.9573 68.1093 23.16C68.376 23.352 68.7333 23.448 69.1813 23.448ZM79.5461 25C79.4394 25 79.3487 24.9627 79.2741 24.888C79.1994 24.8133 79.1621 24.7227 79.1621 24.616V14.2C79.1621 14.0827 79.1994 13.9867 79.2741 13.912C79.3487 13.8373 79.4394 13.8 79.5461 13.8H86.4901C86.6074 13.8 86.7034 13.8373 86.7781 13.912C86.8527 13.9867 86.8901 14.0827 86.8901 14.2V15.32C86.8901 15.4373 86.8527 15.5333 86.7781 15.608C86.7034 15.672 86.6074 15.704 86.4901 15.704H81.3541V18.744H86.1701C86.2874 18.744 86.3834 18.7813 86.4581 18.856C86.5327 18.9307 86.5701 19.0267 86.5701 19.144V20.264C86.5701 20.3707 86.5327 20.4613 86.4581 20.536C86.3834 20.6107 86.2874 20.648 86.1701 20.648H81.3541V24.616C81.3541 24.7227 81.3167 24.8133 81.2421 24.888C81.1674 24.9627 81.0714 25 80.9541 25H79.5461ZM88.7916 25C88.6849 25 88.5942 24.9627 88.5196 24.888C88.4449 24.8133 88.4076 24.7227 88.4076 24.616V17.08C88.4076 16.9627 88.4449 16.8667 88.5196 16.792C88.5942 16.7173 88.6849 16.68 88.7916 16.68H90.0876C90.1942 16.68 90.2849 16.7173 90.3596 16.792C90.4449 16.8667 90.4876 16.9627 90.4876 17.08V17.736C90.7329 17.3947 91.0476 17.1333 91.4316 16.952C91.8262 16.7707 92.2796 16.68 92.7916 16.68H93.4476C93.5649 16.68 93.6556 16.7173 93.7196 16.792C93.7942 16.8667 93.8316 16.9573 93.8316 17.064V18.216C93.8316 18.3227 93.7942 18.4133 93.7196 18.488C93.6556 18.5627 93.5649 18.6 93.4476 18.6H92.1996C91.6876 18.6 91.2876 18.744 90.9996 19.032C90.7222 19.32 90.5836 19.7147 90.5836 20.216V24.616C90.5836 24.7227 90.5462 24.8133 90.4716 24.888C90.3969 24.9627 90.3009 25 90.1836 25H88.7916ZM95.4634 25C95.3568 25 95.2661 24.9627 95.1914 24.888C95.1168 24.8133 95.0794 24.7227 95.0794 24.616V17.064C95.0794 16.9573 95.1168 16.8667 95.1914 16.792C95.2661 16.7173 95.3568 16.68 95.4634 16.68H96.7914C96.9088 16.68 96.9994 16.7173 97.0634 16.792C97.1381 16.8667 97.1754 16.9573 97.1754 17.064V24.616C97.1754 24.7227 97.1381 24.8133 97.0634 24.888C96.9994 24.9627 96.9088 25 96.7914 25H95.4634ZM95.3994 15.304C95.2821 15.304 95.1861 15.272 95.1114 15.208C95.0474 15.1333 95.0154 15.0373 95.0154 14.92V13.768C95.0154 13.6613 95.0474 13.5707 95.1114 13.496C95.1861 13.4213 95.2821 13.384 95.3994 13.384H96.8554C96.9728 13.384 97.0688 13.4213 97.1434 13.496C97.2181 13.5707 97.2554 13.6613 97.2554 13.768V14.92C97.2554 15.0373 97.2181 15.1333 97.1434 15.208C97.0688 15.272 96.9728 15.304 96.8554 15.304H95.3994ZM102.929 25.16C101.745 25.16 100.806 24.8187 100.113 24.136C99.4197 23.4533 99.0464 22.4827 98.9931 21.224C98.9824 21.1173 98.9771 20.984 98.9771 20.824C98.9771 20.6533 98.9824 20.52 98.9931 20.424C99.0357 19.624 99.2171 18.9307 99.5371 18.344C99.8677 17.7573 100.321 17.3093 100.897 17C101.473 16.68 102.15 16.52 102.929 16.52C103.793 16.52 104.518 16.7013 105.105 17.064C105.692 17.416 106.134 17.912 106.433 18.552C106.732 19.1813 106.881 19.912 106.881 20.744V21.08C106.881 21.1867 106.844 21.2773 106.769 21.352C106.694 21.4267 106.598 21.464 106.481 21.464H101.169C101.169 21.464 101.169 21.48 101.169 21.512C101.169 21.544 101.169 21.5707 101.169 21.592C101.18 21.9653 101.249 22.312 101.377 22.632C101.516 22.9413 101.713 23.192 101.969 23.384C102.236 23.576 102.55 23.672 102.913 23.672C103.212 23.672 103.462 23.6293 103.665 23.544C103.868 23.448 104.033 23.3413 104.161 23.224C104.289 23.1067 104.38 23.0107 104.433 22.936C104.529 22.808 104.604 22.7333 104.657 22.712C104.721 22.68 104.812 22.664 104.929 22.664H106.305C106.412 22.664 106.497 22.696 106.561 22.76C106.636 22.824 106.668 22.904 106.657 23C106.646 23.1707 106.556 23.3787 106.385 23.624C106.225 23.8693 105.99 24.1093 105.681 24.344C105.372 24.5787 104.982 24.776 104.513 24.936C104.054 25.0853 103.526 25.16 102.929 25.16ZM101.169 20.12H104.705V20.072C104.705 19.656 104.636 19.2933 104.497 18.984C104.358 18.6747 104.156 18.4293 103.889 18.248C103.622 18.0667 103.302 17.976 102.929 17.976C102.556 17.976 102.236 18.0667 101.969 18.248C101.702 18.4293 101.5 18.6747 101.361 18.984C101.233 19.2933 101.169 19.656 101.169 20.072V20.12ZM108.963 25C108.857 25 108.766 24.9627 108.691 24.888C108.617 24.8133 108.579 24.7227 108.579 24.616V17.064C108.579 16.9573 108.617 16.8667 108.691 16.792C108.766 16.7173 108.857 16.68 108.963 16.68H110.275C110.382 16.68 110.473 16.7173 110.547 16.792C110.622 16.8667 110.659 16.9573 110.659 17.064V17.72C110.937 17.3787 111.289 17.096 111.715 16.872C112.153 16.6373 112.691 16.52 113.331 16.52C113.982 16.52 114.547 16.6693 115.027 16.968C115.507 17.256 115.875 17.6667 116.131 18.2C116.398 18.7333 116.531 19.3733 116.531 20.12V24.616C116.531 24.7227 116.494 24.8133 116.419 24.888C116.345 24.9627 116.254 25 116.147 25H114.739C114.633 25 114.542 24.9627 114.467 24.888C114.393 24.8133 114.355 24.7227 114.355 24.616V20.216C114.355 19.5973 114.201 19.112 113.891 18.76C113.593 18.408 113.155 18.232 112.579 18.232C112.025 18.232 111.582 18.408 111.251 18.76C110.921 19.112 110.755 19.5973 110.755 20.216V24.616C110.755 24.7227 110.718 24.8133 110.643 24.888C110.569 24.9627 110.478 25 110.371 25H108.963ZM121.652 25.16C121.097 25.16 120.606 25.0693 120.18 24.888C119.764 24.696 119.417 24.4293 119.14 24.088C118.862 23.7467 118.649 23.3467 118.5 22.888C118.35 22.4187 118.265 21.9067 118.244 21.352C118.233 21.16 118.228 20.9893 118.228 20.84C118.228 20.68 118.233 20.504 118.244 20.312C118.265 19.7787 118.345 19.2827 118.484 18.824C118.633 18.3653 118.846 17.9653 119.124 17.624C119.412 17.272 119.764 17 120.18 16.808C120.606 16.616 121.097 16.52 121.652 16.52C122.228 16.52 122.713 16.6213 123.108 16.824C123.513 17.016 123.849 17.2667 124.116 17.576V14.024C124.116 13.9173 124.148 13.8267 124.212 13.752C124.286 13.6773 124.382 13.64 124.5 13.64H125.86C125.966 13.64 126.057 13.6773 126.132 13.752C126.206 13.8267 126.244 13.9173 126.244 14.024V24.616C126.244 24.7227 126.206 24.8133 126.132 24.888C126.057 24.9627 125.966 25 125.86 25H124.596C124.478 25 124.382 24.9627 124.308 24.888C124.244 24.8133 124.212 24.7227 124.212 24.616V24.024C123.945 24.3547 123.604 24.6267 123.188 24.84C122.782 25.0533 122.27 25.16 121.652 25.16ZM122.244 23.448C122.692 23.448 123.049 23.3467 123.316 23.144C123.582 22.9413 123.78 22.6853 123.908 22.376C124.036 22.056 124.105 21.7307 124.116 21.4C124.126 21.208 124.132 21.0053 124.132 20.792C124.132 20.568 124.126 20.36 124.116 20.168C124.105 19.848 124.03 19.544 123.892 19.256C123.753 18.9573 123.55 18.712 123.284 18.52C123.017 18.328 122.67 18.232 122.244 18.232C121.796 18.232 121.438 18.3333 121.172 18.536C120.916 18.728 120.729 18.984 120.612 19.304C120.494 19.624 120.425 19.976 120.404 20.36C120.393 20.68 120.393 21 120.404 21.32C120.425 21.704 120.494 22.056 120.612 22.376C120.729 22.696 120.916 22.9573 121.172 23.16C121.438 23.352 121.796 23.448 122.244 23.448ZM131.528 25.16C130.888 25.16 130.339 25.0853 129.88 24.936C129.432 24.7867 129.064 24.6 128.776 24.376C128.488 24.152 128.275 23.928 128.136 23.704C127.998 23.48 127.923 23.2933 127.912 23.144C127.902 23.0267 127.934 22.936 128.008 22.872C128.094 22.7973 128.184 22.76 128.28 22.76H129.544C129.587 22.76 129.624 22.7653 129.656 22.776C129.688 22.7867 129.731 22.8187 129.784 22.872C129.923 22.9893 130.067 23.112 130.216 23.24C130.376 23.368 130.563 23.48 130.776 23.576C130.99 23.6613 131.256 23.704 131.576 23.704C131.992 23.704 132.339 23.624 132.616 23.464C132.904 23.2933 133.048 23.0533 133.048 22.744C133.048 22.52 132.984 22.3387 132.856 22.2C132.739 22.0613 132.515 21.9387 132.184 21.832C131.854 21.7147 131.384 21.592 130.776 21.464C130.179 21.3253 129.683 21.1493 129.288 20.936C128.894 20.7227 128.6 20.456 128.408 20.136C128.216 19.816 128.12 19.4427 128.12 19.016C128.12 18.6 128.243 18.2053 128.488 17.832C128.744 17.448 129.118 17.1333 129.608 16.888C130.11 16.6427 130.728 16.52 131.464 16.52C132.04 16.52 132.542 16.5947 132.968 16.744C133.395 16.8827 133.747 17.0587 134.024 17.272C134.312 17.4853 134.531 17.704 134.68 17.928C134.83 18.1413 134.91 18.328 134.92 18.488C134.931 18.6053 134.899 18.7013 134.824 18.776C134.75 18.84 134.664 18.872 134.568 18.872H133.384C133.331 18.872 133.283 18.8613 133.24 18.84C133.198 18.8187 133.155 18.792 133.112 18.76C132.995 18.6533 132.867 18.5413 132.728 18.424C132.59 18.3067 132.419 18.2053 132.216 18.12C132.024 18.024 131.768 17.976 131.448 17.976C131.043 17.976 130.734 18.0667 130.52 18.248C130.307 18.4187 130.2 18.6373 130.2 18.904C130.2 19.0853 130.248 19.2453 130.344 19.384C130.451 19.512 130.659 19.6347 130.968 19.752C131.278 19.8693 131.747 19.992 132.376 20.12C133.091 20.248 133.656 20.44 134.072 20.696C134.499 20.9413 134.798 21.2293 134.968 21.56C135.15 21.88 135.24 22.2373 135.24 22.632C135.24 23.112 135.096 23.544 134.808 23.928C134.531 24.312 134.115 24.616 133.56 24.84C133.016 25.0533 132.339 25.16 131.528 25.16Z" fill="#6A5AE0"/>
<defs>
<clipPath id="clip0_385_5616">
<rect width="16" height="16" fill="white" transform="translate(16 12)"/>
</clipPath>
</defs>
</svg>
