<svg width="24" height="24" viewBox="0 0 24 24" fill="none" xmlns="http://www.w3.org/2000/svg">
<g id="Icon" clip-path="url(#clip0_2702_43627)">
<path id="Vector" d="M12 21C16.9706 21 21 16.9706 21 12C21 7.02944 16.9706 3 12 3C7.02944 3 3 7.02944 3 12C3 16.9706 7.02944 21 12 21Z" stroke="#858494" stroke-width="2" stroke-linecap="round" stroke-linejoin="round"/>
<path id="Vector_2" d="M3.59998 9H20.4" stroke="#858494" stroke-width="2" stroke-linecap="round" stroke-linejoin="round"/>
<path id="Vector_3" d="M3.59998 15H20.4" stroke="#858494" stroke-width="2" stroke-linecap="round" stroke-linejoin="round"/>
<path id="Vector_4" d="M11.5 3C9.81538 5.69961 8.92224 8.81787 8.92224 12C8.92224 15.1821 9.81538 18.3004 11.5 21" stroke="#858494" stroke-width="2" stroke-linecap="round" stroke-linejoin="round"/>
<path id="Vector_5" d="M12.5 3C14.1847 5.69961 15.0778 8.81787 15.0778 12C15.0778 15.1821 14.1847 18.3004 12.5 21" stroke="#858494" stroke-width="2" stroke-linecap="round" stroke-linejoin="round"/>
</g>
<defs>
<clipPath id="clip0_2702_43627">
<rect width="24" height="24" fill="white"/>
</clipPath>
</defs>
</svg>
