<svg width="16" height="16" viewBox="0 0 16 16" fill="none" xmlns="http://www.w3.org/2000/svg">
<g id="PT - Portugal">
<g id="flag">
<mask id="mask0_385_6370" style="mask-type:luminance" maskUnits="userSpaceOnUse" x="-3" y="0" width="22" height="16">
<rect id="mask" x="-2.40002" width="21.3331" height="15.9998" rx="1.59998" fill="white"/>
</mask>
<g mask="url(#mask0_385_6370)">
<g id="contents">
<path id="right" fill-rule="evenodd" clip-rule="evenodd" d="M2.93323 0H18.933V15.9998H2.93323V0Z" fill="#EF0000"/>
<path id="left" fill-rule="evenodd" clip-rule="evenodd" d="M-2.40002 0H5.59988V15.9998H-2.40002V0Z" fill="#2F8D00"/>
<g id="mark">
<g id="stripes">
<mask id="mask1_385_6370" style="mask-type:luminance" maskUnits="userSpaceOnUse" x="0" y="2" width="11" height="12">
<path id="Path" fill-rule="evenodd" clip-rule="evenodd" d="M5.53647 13.2047C2.69618 13.2047 0.393677 10.8744 0.393677 7.9999C0.393677 5.1254 2.69618 2.79515 5.53647 2.79515C8.37676 2.79515 10.6793 5.1254 10.6793 7.9999C10.6793 10.8744 8.37676 13.2047 5.53647 13.2047Z" fill="white"/>
</mask>
<g mask="url(#mask1_385_6370)">
<path id="Rectangle 53" fill-rule="evenodd" clip-rule="evenodd" d="M5.21899 2.66664H5.88565V4.46581H5.21899V2.66664Z" fill="#FFE017"/>
<path id="Rectangle 53_2" fill-rule="evenodd" clip-rule="evenodd" d="M5.21899 11.6625H5.88565V13.3332H5.21899V11.6625Z" fill="#FFE017"/>
<path id="Path 194" d="M0.476303 8.26909L0.289917 7.7909C2.34668 6.96979 3.89904 6.44026 4.95235 6.20161C6.49775 5.85148 8.19577 5.59243 10.0465 5.42426L10.092 5.93625C8.26243 6.10249 6.58617 6.35822 5.06331 6.70325C4.04136 6.93479 2.51056 7.45697 0.476303 8.26909Z" fill="#FFE017"/>
<path id="Path 204" d="M10.3605 5.1092L10.2093 5.59993C8.65482 5.10919 7.38855 4.89825 6.41521 4.96359L6.38159 4.45066C7.42664 4.38051 8.75137 4.6012 10.3605 5.1092Z" fill="#FFE017"/>
<path id="Path 207" d="M10.8984 7.85308L10.611 8.27697C9.81861 7.7268 8.84232 7.45045 7.67554 7.45045V6.9364C8.94044 6.9364 10.0169 7.24111 10.8984 7.85308Z" fill="#FFE017"/>
<path id="Path 208" d="M10.4679 8.00694L10.5992 8.50351C8.89083 8.96626 7.28688 9.22881 5.78727 9.29063C4.27732 9.35289 2.51743 9.0894 0.506104 8.50218L0.646891 8.00827C2.60933 8.58122 4.3164 8.8368 5.76659 8.77701C7.22713 8.7168 8.79427 8.46027 10.4679 8.00694Z" fill="#FFE017"/>
<path id="Path 209" d="M10.2744 10.4238L9.47156 11.2469C7.94578 9.72255 6.60251 8.63259 5.45001 7.97768C4.27782 7.31159 2.74918 6.63521 0.866455 5.95129L1.25255 4.86268C3.1908 5.56677 4.77567 6.26803 6.00953 6.96917C7.26309 7.6815 8.68198 8.83283 10.2744 10.4238Z" fill="#FFE017"/>
<path id="Path 210" d="M1.23884 10.8901L0.934937 10.4782C0.977376 10.4461 1.0531 10.3926 1.15743 10.3248C1.3297 10.2129 1.52099 10.1012 1.7268 9.9968C2.29366 9.70924 2.86228 9.5297 3.40462 9.51321C3.43114 9.5124 3.45755 9.512 3.48385 9.512V10.026C3.46267 10.026 3.44134 10.0264 3.41987 10.027C2.96283 10.0409 2.46093 10.1994 1.9544 10.4563C1.7656 10.5521 1.58969 10.6549 1.43182 10.7574C1.37687 10.7931 1.32824 10.8261 1.28658 10.8556C1.26229 10.8727 1.24617 10.8845 1.23884 10.8901Z" fill="#FFE017"/>
<path id="Path 211" d="M1.47473 11.0683L1.60264 10.5708C3.29604 11.0167 4.60154 11.239 5.51266 11.239C6.42037 11.239 7.77141 10.9768 9.55701 10.4508L9.69899 10.9443C7.87115 11.4828 6.47864 11.753 5.51266 11.753C4.55008 11.753 3.20628 11.5243 1.47473 11.0683Z" fill="#FFE017"/>
<path id="Path 212" d="M0.814941 6.46287L1.61965 5.64159L2.79785 6.824L1.99314 7.64528L0.814941 6.46287Z" fill="#FFE017"/>
<path id="Path 213" d="M7.49048 10.565L8.08903 9.57973L9.95809 10.7427L9.35954 11.728L7.49048 10.565Z" fill="#FFE017"/>
</g>
</g>
<path id="outer" fill-rule="evenodd" clip-rule="evenodd" d="M0.393677 7.9999C0.393677 10.8744 2.69618 13.2047 5.53647 13.2047C8.37676 13.2047 10.6793 10.8744 10.6793 7.9999C10.6793 5.1254 8.37676 2.79515 5.53647 2.79515C2.69618 2.79515 0.393677 5.1254 0.393677 7.9999ZM10.0443 8.06416C10.0443 10.5483 8.05451 12.5621 5.59994 12.5621C3.14537 12.5621 1.15555 10.5483 1.15555 8.06416C1.15555 5.58002 3.14537 3.56623 5.59994 3.56623C8.05451 3.56623 10.0443 5.58002 10.0443 8.06416Z" fill="#F9E813"/>
<g id="center">
<path id="Path_2" d="M2.70447 4.79013V8.96389C2.97922 10.6159 3.90485 11.4419 5.48136 11.4419C7.05787 11.4419 7.9835 10.6159 8.25825 8.96389V4.79013H2.70447Z" fill="white"/>
<path id="Path 214" d="M2.32349 4.40459H8.63916V8.99611L8.63388 9.02788C8.32879 10.8623 7.24723 11.8275 5.48132 11.8275C3.71542 11.8275 2.63386 10.8623 2.32877 9.02788L2.32349 8.99611V4.40459Z" fill="#C51918"/>
<path id="Path 214_2" d="M3.76807 5.80707H7.19451V8.76763C7.19451 8.76763 6.94024 10.2965 5.48129 10.2965C4.02233 10.2965 3.76807 8.76763 3.76807 8.76763V5.80707Z" fill="#F7FCFF"/>
<g id="castles">
<g id="castle">
<path id="Rectangle 54" fill-rule="evenodd" clip-rule="evenodd" d="M2.93323 4.72284H3.41515V5.04412H2.93323V4.72284Z" fill="#F9E813"/>
<path id="Rectangle 55" fill-rule="evenodd" clip-rule="evenodd" d="M2.67932 4.85135H3.5682V5.012H2.67932V4.85135Z" fill="#060101"/>
<path id="Rectangle 54_2" fill-rule="evenodd" clip-rule="evenodd" d="M2.67932 4.97987H3.16124V5.14051H2.67932V4.97987Z" fill="#F9E813"/>
<path id="Rectangle 54_3" fill-rule="evenodd" clip-rule="evenodd" d="M3.18726 4.97987H3.66918V5.14051H3.18726V4.97987Z" fill="#F9E813"/>
<path id="Rectangle 54_4" fill-rule="evenodd" clip-rule="evenodd" d="M2.67932 5.36541H3.0006V5.84733H2.67932V5.36541Z" fill="#F9E813"/>
<path id="Rectangle 54_5" fill-rule="evenodd" clip-rule="evenodd" d="M3.31433 5.36541H3.63561V5.84733H3.31433V5.36541Z" fill="#F9E813"/>
<path id="Rectangle 54_6" fill-rule="evenodd" clip-rule="evenodd" d="M3.0603 5.36541H3.22094V5.84733H3.0603V5.36541Z" fill="#F9E813"/>
<path id="Rectangle 55_2" fill-rule="evenodd" clip-rule="evenodd" d="M2.67932 5.23689H3.5682V5.39753H2.67932V5.23689Z" fill="#060101"/>
<path id="Rectangle 55_3" fill-rule="evenodd" clip-rule="evenodd" d="M2.67932 5.62243H3.5682V5.78307H2.67932V5.62243Z" fill="#060101"/>
<path id="Rectangle 54_7" fill-rule="evenodd" clip-rule="evenodd" d="M2.8064 5.10838H2.96704V5.26902H2.8064V5.10838Z" fill="#F9E813"/>
<path id="Rectangle 54_8" fill-rule="evenodd" clip-rule="evenodd" d="M3.31433 5.10838H3.47497V5.26902H3.31433V5.10838Z" fill="#F9E813"/>
<path id="Rectangle 54_9" fill-rule="evenodd" clip-rule="evenodd" d="M3.0603 4.97987H3.22094V5.30115H3.0603V4.97987Z" fill="#F9E813"/>
</g>
<g id="castle_2">
<path id="Rectangle 54_10" fill-rule="evenodd" clip-rule="evenodd" d="M5.34595 4.72284H5.82787V5.04412H5.34595V4.72284Z" fill="#F9E813"/>
<path id="Rectangle 55_4" fill-rule="evenodd" clip-rule="evenodd" d="M5.09204 4.85135H5.98092V5.012H5.09204V4.85135Z" fill="#060101"/>
<path id="Rectangle 54_11" fill-rule="evenodd" clip-rule="evenodd" d="M5.09204 4.97987H5.57396V5.14051H5.09204V4.97987Z" fill="#F9E813"/>
<path id="Rectangle 54_12" fill-rule="evenodd" clip-rule="evenodd" d="M5.59998 4.97987H6.0819V5.14051H5.59998V4.97987Z" fill="#F9E813"/>
<path id="Rectangle 54_13" fill-rule="evenodd" clip-rule="evenodd" d="M5.09204 5.36541H5.41332V5.84733H5.09204V5.36541Z" fill="#F9E813"/>
<path id="Rectangle 54_14" fill-rule="evenodd" clip-rule="evenodd" d="M5.72693 5.36541H6.04821V5.84733H5.72693V5.36541Z" fill="#F9E813"/>
<path id="Rectangle 54_15" fill-rule="evenodd" clip-rule="evenodd" d="M5.47302 5.36541H5.63366V5.84733H5.47302V5.36541Z" fill="#F9E813"/>
<path id="Rectangle 55_5" fill-rule="evenodd" clip-rule="evenodd" d="M5.09204 5.23689H5.98092V5.39753H5.09204V5.23689Z" fill="#060101"/>
<path id="Rectangle 55_6" fill-rule="evenodd" clip-rule="evenodd" d="M5.09204 5.62243H5.98092V5.78307H5.09204V5.62243Z" fill="#060101"/>
<path id="Rectangle 54_16" fill-rule="evenodd" clip-rule="evenodd" d="M5.21912 5.10838H5.37976V5.26902H5.21912V5.10838Z" fill="#F9E813"/>
<path id="Rectangle 54_17" fill-rule="evenodd" clip-rule="evenodd" d="M5.72693 5.10838H5.88757V5.26902H5.72693V5.10838Z" fill="#F9E813"/>
<path id="Rectangle 54_18" fill-rule="evenodd" clip-rule="evenodd" d="M5.47302 4.97987H5.63366V5.30115H5.47302V4.97987Z" fill="#F9E813"/>
</g>
<g id="castle_3">
<path id="Rectangle 54_19" fill-rule="evenodd" clip-rule="evenodd" d="M7.63159 4.72284H8.11351V5.04412H7.63159V4.72284Z" fill="#F9E813"/>
<path id="Rectangle 55_7" fill-rule="evenodd" clip-rule="evenodd" d="M7.37769 4.85135H8.26656V5.012H7.37769V4.85135Z" fill="#060101"/>
<path id="Rectangle 54_20" fill-rule="evenodd" clip-rule="evenodd" d="M7.37769 4.97987H7.85961V5.14051H7.37769V4.97987Z" fill="#F9E813"/>
<path id="Rectangle 54_21" fill-rule="evenodd" clip-rule="evenodd" d="M7.88562 4.97987H8.36754V5.14051H7.88562V4.97987Z" fill="#F9E813"/>
<path id="Rectangle 54_22" fill-rule="evenodd" clip-rule="evenodd" d="M7.37769 5.36541H7.69897V5.84733H7.37769V5.36541Z" fill="#F9E813"/>
<path id="Rectangle 54_23" fill-rule="evenodd" clip-rule="evenodd" d="M8.0127 5.36541H8.33398V5.84733H8.0127V5.36541Z" fill="#F9E813"/>
<path id="Rectangle 54_24" fill-rule="evenodd" clip-rule="evenodd" d="M7.75867 5.36541H7.91931V5.84733H7.75867V5.36541Z" fill="#F9E813"/>
<path id="Rectangle 55_8" fill-rule="evenodd" clip-rule="evenodd" d="M7.37769 5.23689H8.26656V5.39753H7.37769V5.23689Z" fill="#060101"/>
<path id="Rectangle 55_9" fill-rule="evenodd" clip-rule="evenodd" d="M7.37769 5.62243H8.26656V5.78307H7.37769V5.62243Z" fill="#060101"/>
<path id="Rectangle 54_25" fill-rule="evenodd" clip-rule="evenodd" d="M7.50476 5.10838H7.6654V5.26902H7.50476V5.10838Z" fill="#F9E813"/>
<path id="Rectangle 54_26" fill-rule="evenodd" clip-rule="evenodd" d="M8.0127 5.10838H8.17334V5.26902H8.0127V5.10838Z" fill="#F9E813"/>
<path id="Rectangle 54_27" fill-rule="evenodd" clip-rule="evenodd" d="M7.75867 4.97987H7.91931V5.30115H7.75867V4.97987Z" fill="#F9E813"/>
</g>
<g id="castle_4">
<path id="Rectangle 54_28" fill-rule="evenodd" clip-rule="evenodd" d="M7.63159 7.03608H8.11351V7.35736H7.63159V7.03608Z" fill="#F9E813"/>
<path id="Rectangle 55_10" fill-rule="evenodd" clip-rule="evenodd" d="M7.37769 7.16459H8.26656V7.32523H7.37769V7.16459Z" fill="#060101"/>
<path id="Rectangle 54_29" fill-rule="evenodd" clip-rule="evenodd" d="M7.37769 7.2931H7.85961V7.45374H7.37769V7.2931Z" fill="#F9E813"/>
<path id="Rectangle 54_30" fill-rule="evenodd" clip-rule="evenodd" d="M7.88562 7.2931H8.36754V7.45374H7.88562V7.2931Z" fill="#F9E813"/>
<path id="Rectangle 54_31" fill-rule="evenodd" clip-rule="evenodd" d="M7.37769 7.67864H7.69897V8.16056H7.37769V7.67864Z" fill="#F9E813"/>
<path id="Rectangle 54_32" fill-rule="evenodd" clip-rule="evenodd" d="M8.0127 7.67864H8.33398V8.16056H8.0127V7.67864Z" fill="#F9E813"/>
<path id="Rectangle 54_33" fill-rule="evenodd" clip-rule="evenodd" d="M7.75867 7.67864H7.91931V8.16056H7.75867V7.67864Z" fill="#F9E813"/>
<path id="Rectangle 55_11" fill-rule="evenodd" clip-rule="evenodd" d="M7.37769 7.55013H8.26656V7.71077H7.37769V7.55013Z" fill="#060101"/>
<path id="Rectangle 55_12" fill-rule="evenodd" clip-rule="evenodd" d="M7.37769 7.93567H8.26656V8.09631H7.37769V7.93567Z" fill="#060101"/>
<path id="Rectangle 54_34" fill-rule="evenodd" clip-rule="evenodd" d="M7.50476 7.42161H7.6654V7.58225H7.50476V7.42161Z" fill="#F9E813"/>
<path id="Rectangle 54_35" fill-rule="evenodd" clip-rule="evenodd" d="M8.0127 7.42161H8.17334V7.58225H8.0127V7.42161Z" fill="#F9E813"/>
<path id="Rectangle 54_36" fill-rule="evenodd" clip-rule="evenodd" d="M7.75867 7.2931H7.91931V7.61438H7.75867V7.2931Z" fill="#F9E813"/>
</g>
<g id="castle_5">
<path id="Rectangle 54_37" fill-rule="evenodd" clip-rule="evenodd" d="M2.93323 7.03608H3.41515V7.35736H2.93323V7.03608Z" fill="#F9E813"/>
<path id="Rectangle 55_13" fill-rule="evenodd" clip-rule="evenodd" d="M2.67932 7.16459H3.5682V7.32523H2.67932V7.16459Z" fill="#060101"/>
<path id="Rectangle 54_38" fill-rule="evenodd" clip-rule="evenodd" d="M2.67932 7.2931H3.16124V7.45374H2.67932V7.2931Z" fill="#F9E813"/>
<path id="Rectangle 54_39" fill-rule="evenodd" clip-rule="evenodd" d="M3.18726 7.2931H3.66918V7.45374H3.18726V7.2931Z" fill="#F9E813"/>
<path id="Rectangle 54_40" fill-rule="evenodd" clip-rule="evenodd" d="M2.67932 7.67864H3.0006V8.16056H2.67932V7.67864Z" fill="#F9E813"/>
<path id="Rectangle 54_41" fill-rule="evenodd" clip-rule="evenodd" d="M3.31433 7.67864H3.63561V8.16056H3.31433V7.67864Z" fill="#F9E813"/>
<path id="Rectangle 54_42" fill-rule="evenodd" clip-rule="evenodd" d="M3.0603 7.67864H3.22094V8.16056H3.0603V7.67864Z" fill="#F9E813"/>
<path id="Rectangle 55_14" fill-rule="evenodd" clip-rule="evenodd" d="M2.67932 7.55013H3.5682V7.71077H2.67932V7.55013Z" fill="#060101"/>
<path id="Rectangle 55_15" fill-rule="evenodd" clip-rule="evenodd" d="M2.67932 7.93567H3.5682V8.09631H2.67932V7.93567Z" fill="#060101"/>
<path id="Rectangle 54_43" fill-rule="evenodd" clip-rule="evenodd" d="M2.8064 7.42161H2.96704V7.58225H2.8064V7.42161Z" fill="#F9E813"/>
<path id="Rectangle 54_44" fill-rule="evenodd" clip-rule="evenodd" d="M3.31433 7.42161H3.47497V7.58225H3.31433V7.42161Z" fill="#F9E813"/>
<path id="Rectangle 54_45" fill-rule="evenodd" clip-rule="evenodd" d="M3.0603 7.2931H3.22094V7.61438H3.0603V7.2931Z" fill="#F9E813"/>
</g>
<g id="castle_6">
<path id="Rectangle 54_46" fill-rule="evenodd" clip-rule="evenodd" d="M3.24255 9.93587L3.55233 9.5667L3.79844 9.77321L3.48867 10.1424L3.24255 9.93587Z" fill="#F9E813"/>
<path id="Rectangle 55_16" fill-rule="evenodd" clip-rule="evenodd" d="M3.17773 10.213L3.74909 9.53209L3.87215 9.63535L3.30079 10.3163L3.17773 10.213Z" fill="#060101"/>
<path id="Rectangle 54_47" fill-rule="evenodd" clip-rule="evenodd" d="M3.27612 10.2956L3.5859 9.92646L3.70895 10.0297L3.39918 10.3989L3.27612 10.2956Z" fill="#F9E813"/>
<path id="Rectangle 54_48" fill-rule="evenodd" clip-rule="evenodd" d="M3.60266 9.90655L3.91243 9.53737L4.03549 9.64063L3.72572 10.0098L3.60266 9.90655Z" fill="#F9E813"/>
<path id="Rectangle 54_49" fill-rule="evenodd" clip-rule="evenodd" d="M3.57141 10.5434L3.77793 10.2973L4.1471 10.6071L3.94058 10.8532L3.57141 10.5434Z" fill="#F9E813"/>
<path id="Rectangle 54_50" fill-rule="evenodd" clip-rule="evenodd" d="M3.97949 10.0571L4.18601 9.81097L4.55518 10.1207L4.34867 10.3669L3.97949 10.0571Z" fill="#F9E813"/>
<path id="Rectangle 54_51" fill-rule="evenodd" clip-rule="evenodd" d="M3.81641 10.2516L3.91966 10.1286L4.28884 10.4383L4.18558 10.5614L3.81641 10.2516Z" fill="#F9E813"/>
<path id="Rectangle 55_17" fill-rule="evenodd" clip-rule="evenodd" d="M3.47302 10.4608L4.04438 9.77993L4.16744 9.88319L3.59608 10.5641L3.47302 10.4608Z" fill="#060101"/>
<path id="Rectangle 55_18" fill-rule="evenodd" clip-rule="evenodd" d="M3.76843 10.7087L4.33979 10.0277L4.46285 10.131L3.89149 10.8119L3.76843 10.7087Z" fill="#060101"/>
<path id="Rectangle 54_52" fill-rule="evenodd" clip-rule="evenodd" d="M3.45618 10.281L3.55943 10.1579L3.68249 10.2612L3.57923 10.3842L3.45618 10.281Z" fill="#F9E813"/>
<path id="Rectangle 54_53" fill-rule="evenodd" clip-rule="evenodd" d="M3.78271 9.89187L3.88597 9.76881L4.00903 9.87207L3.90577 9.99512L3.78271 9.89187Z" fill="#F9E813"/>
<path id="Rectangle 54_54" fill-rule="evenodd" clip-rule="evenodd" d="M3.521 10.0038L3.62425 9.88076L3.87037 10.0873L3.76711 10.2103L3.521 10.0038Z" fill="#F9E813"/>
</g>
<g id="castle_7">
<path id="Rectangle 54_55" fill-rule="evenodd" clip-rule="evenodd" d="M7.58557 9.64402L7.89534 10.0132L7.64923 10.2197L7.33946 9.85054L7.58557 9.64402Z" fill="#F9E813"/>
<path id="Rectangle 55_19" fill-rule="evenodd" clip-rule="evenodd" d="M7.32385 9.53207L7.89521 10.213L7.77215 10.3163L7.20079 9.63533L7.32385 9.53207Z" fill="#060101"/>
<path id="Rectangle 54_56" fill-rule="evenodd" clip-rule="evenodd" d="M7.22534 9.6147L7.53512 9.98387L7.41206 10.0871L7.10228 9.71796L7.22534 9.6147Z" fill="#F9E813"/>
<path id="Rectangle 54_57" fill-rule="evenodd" clip-rule="evenodd" d="M7.55188 10.0038L7.86165 10.373L7.7386 10.4762L7.42882 10.107L7.55188 10.0038Z" fill="#F9E813"/>
<path id="Rectangle 54_58" fill-rule="evenodd" clip-rule="evenodd" d="M6.93005 9.86251L7.13657 10.1086L6.7674 10.4184L6.56088 10.1723L6.93005 9.86251Z" fill="#F9E813"/>
<path id="Rectangle 54_59" fill-rule="evenodd" clip-rule="evenodd" d="M7.33813 10.3489L7.54465 10.595L7.17548 10.9048L6.96896 10.6586L7.33813 10.3489Z" fill="#F9E813"/>
<path id="Rectangle 54_60" fill-rule="evenodd" clip-rule="evenodd" d="M7.17493 10.1543L7.27818 10.2774L6.90901 10.5872L6.80575 10.4641L7.17493 10.1543Z" fill="#F9E813"/>
<path id="Rectangle 55_20" fill-rule="evenodd" clip-rule="evenodd" d="M7.02856 9.77992L7.59993 10.4608L7.47687 10.5641L6.90551 9.88317L7.02856 9.77992Z" fill="#060101"/>
<path id="Rectangle 55_21" fill-rule="evenodd" clip-rule="evenodd" d="M6.73315 10.0277L7.30451 10.7086L7.18146 10.8119L6.6101 10.131L6.73315 10.0277Z" fill="#060101"/>
<path id="Rectangle 54_61" fill-rule="evenodd" clip-rule="evenodd" d="M7.2085 9.79456L7.31175 9.91762L7.1887 10.0209L7.08544 9.89782L7.2085 9.79456Z" fill="#F9E813"/>
<path id="Rectangle 54_62" fill-rule="evenodd" clip-rule="evenodd" d="M7.53503 10.1837L7.63829 10.3067L7.51523 10.41L7.41198 10.2869L7.53503 10.1837Z" fill="#F9E813"/>
<path id="Rectangle 54_63" fill-rule="evenodd" clip-rule="evenodd" d="M7.47021 9.90651L7.57347 10.0296L7.32736 10.2361L7.2241 10.113L7.47021 9.90651Z" fill="#F9E813"/>
</g>
</g>
<path id="Path 214_3" fill-rule="evenodd" clip-rule="evenodd" d="M5.97225 6.13648H5.09204V6.77746C5.09204 6.77746 5.15736 7.10846 5.53215 7.10846C5.90693 7.10846 5.97225 6.77746 5.97225 6.77746V6.13648ZM5.47304 6.39351C5.47304 6.46449 5.41619 6.52202 5.34606 6.52202C5.27593 6.52202 5.21908 6.46449 5.21908 6.39351C5.21908 6.32253 5.27593 6.265 5.34606 6.265C5.41619 6.265 5.47304 6.32253 5.47304 6.39351ZM5.34606 7.03607C5.41619 7.03607 5.47304 6.97854 5.47304 6.90756C5.47304 6.83659 5.41619 6.77905 5.34606 6.77905C5.27593 6.77905 5.21908 6.83659 5.21908 6.90756C5.21908 6.97854 5.27593 7.03607 5.34606 7.03607ZM5.8539 6.90756C5.8539 6.97854 5.79705 7.03607 5.72691 7.03607C5.65678 7.03607 5.59993 6.97854 5.59993 6.90756C5.59993 6.83659 5.65678 6.77905 5.72691 6.77905C5.79705 6.77905 5.8539 6.83659 5.8539 6.90756ZM5.53649 6.77905C5.60662 6.77905 5.66347 6.72151 5.66347 6.65054C5.66347 6.57956 5.60662 6.52202 5.53649 6.52202C5.46636 6.52202 5.4095 6.57956 5.4095 6.65054C5.4095 6.72151 5.46636 6.77905 5.53649 6.77905ZM5.8539 6.39351C5.8539 6.46449 5.79705 6.52202 5.72691 6.52202C5.65678 6.52202 5.59993 6.46449 5.59993 6.39351C5.59993 6.32253 5.65678 6.265 5.72691 6.265C5.79705 6.265 5.8539 6.32253 5.8539 6.39351Z" fill="#013399"/>
<path id="Path 214_4" fill-rule="evenodd" clip-rule="evenodd" d="M5.97225 7.55013H5.09204V8.1911C5.09204 8.1911 5.15736 8.5221 5.53215 8.5221C5.90693 8.5221 5.97225 8.1911 5.97225 8.1911V7.55013ZM5.47304 7.80715C5.47304 7.87813 5.41619 7.93566 5.34606 7.93566C5.27593 7.93566 5.21908 7.87813 5.21908 7.80715C5.21908 7.73617 5.27593 7.67864 5.34606 7.67864C5.41619 7.67864 5.47304 7.73617 5.47304 7.80715ZM5.34606 8.44971C5.41619 8.44971 5.47304 8.39218 5.47304 8.3212C5.47304 8.25023 5.41619 8.19269 5.34606 8.19269C5.27593 8.19269 5.21908 8.25023 5.21908 8.3212C5.21908 8.39218 5.27593 8.44971 5.34606 8.44971ZM5.8539 8.3212C5.8539 8.39218 5.79705 8.44971 5.72691 8.44971C5.65678 8.44971 5.59993 8.39218 5.59993 8.3212C5.59993 8.25023 5.65678 8.19269 5.72691 8.19269C5.79705 8.19269 5.8539 8.25023 5.8539 8.3212ZM5.53649 8.19269C5.60662 8.19269 5.66347 8.13515 5.66347 8.06418C5.66347 7.9932 5.60662 7.93566 5.53649 7.93566C5.46636 7.93566 5.4095 7.9932 5.4095 8.06418C5.4095 8.13515 5.46636 8.19269 5.53649 8.19269ZM5.8539 7.80715C5.8539 7.87813 5.79705 7.93566 5.72691 7.93566C5.65678 7.93566 5.59993 7.87813 5.59993 7.80715C5.59993 7.73617 5.65678 7.67864 5.72691 7.67864C5.79705 7.67864 5.8539 7.73617 5.8539 7.80715Z" fill="#013399"/>
<path id="Path 214_5" fill-rule="evenodd" clip-rule="evenodd" d="M7.11507 7.55013H6.23486V8.1911C6.23486 8.1911 6.30018 8.5221 6.67497 8.5221C7.04976 8.5221 7.11507 8.1911 7.11507 8.1911V7.55013ZM6.6159 7.80715C6.6159 7.87813 6.55905 7.93566 6.48892 7.93566C6.41879 7.93566 6.36193 7.87813 6.36193 7.80715C6.36193 7.73617 6.41879 7.67864 6.48892 7.67864C6.55905 7.67864 6.6159 7.73617 6.6159 7.80715ZM6.48892 8.44971C6.55905 8.44971 6.6159 8.39218 6.6159 8.3212C6.6159 8.25023 6.55905 8.19269 6.48892 8.19269C6.41879 8.19269 6.36193 8.25023 6.36193 8.3212C6.36193 8.39218 6.41879 8.44971 6.48892 8.44971ZM6.99676 8.3212C6.99676 8.39218 6.9399 8.44971 6.86977 8.44971C6.79964 8.44971 6.74279 8.39218 6.74279 8.3212C6.74279 8.25023 6.79964 8.19269 6.86977 8.19269C6.9399 8.19269 6.99676 8.25023 6.99676 8.3212ZM6.67934 8.19269C6.74947 8.19269 6.80633 8.13515 6.80633 8.06418C6.80633 7.9932 6.74947 7.93566 6.67934 7.93566C6.60921 7.93566 6.55236 7.9932 6.55236 8.06418C6.55236 8.13515 6.60921 8.19269 6.67934 8.19269ZM6.99676 7.80715C6.99676 7.87813 6.9399 7.93566 6.86977 7.93566C6.79964 7.93566 6.74279 7.87813 6.74279 7.80715C6.74279 7.73617 6.79964 7.67864 6.86977 7.67864C6.9399 7.67864 6.99676 7.73617 6.99676 7.80715Z" fill="#013399"/>
<path id="Path 214_6" fill-rule="evenodd" clip-rule="evenodd" d="M4.82943 7.55013H3.94922V8.1911C3.94922 8.1911 4.01454 8.5221 4.38932 8.5221C4.76411 8.5221 4.82943 8.1911 4.82943 8.1911V7.55013ZM4.33019 7.80715C4.33019 7.87813 4.27333 7.93566 4.2032 7.93566C4.13307 7.93566 4.07622 7.87813 4.07622 7.80715C4.07622 7.73617 4.13307 7.67864 4.2032 7.67864C4.27333 7.67864 4.33019 7.73617 4.33019 7.80715ZM4.2032 8.44971C4.27333 8.44971 4.33019 8.39218 4.33019 8.3212C4.33019 8.25023 4.27333 8.19269 4.2032 8.19269C4.13307 8.19269 4.07622 8.25023 4.07622 8.3212C4.07622 8.39218 4.13307 8.44971 4.2032 8.44971ZM4.71104 8.3212C4.71104 8.39218 4.65419 8.44971 4.58406 8.44971C4.51393 8.44971 4.45707 8.39218 4.45707 8.3212C4.45707 8.25023 4.51393 8.19269 4.58406 8.19269C4.65419 8.19269 4.71104 8.25023 4.71104 8.3212ZM4.39363 8.19269C4.46376 8.19269 4.52061 8.13515 4.52061 8.06418C4.52061 7.9932 4.46376 7.93566 4.39363 7.93566C4.3235 7.93566 4.26665 7.9932 4.26665 8.06418C4.26665 8.13515 4.3235 8.19269 4.39363 8.19269ZM4.71104 7.80715C4.71104 7.87813 4.65419 7.93566 4.58406 7.93566C4.51393 7.93566 4.45707 7.87813 4.45707 7.80715C4.45707 7.73617 4.51393 7.67864 4.58406 7.67864C4.65419 7.67864 4.71104 7.73617 4.71104 7.80715Z" fill="#013399"/>
<path id="Path 214_7" fill-rule="evenodd" clip-rule="evenodd" d="M5.97225 8.96377H5.09204V9.60474C5.09204 9.60474 5.15736 9.93574 5.53215 9.93574C5.90693 9.93574 5.97225 9.60474 5.97225 9.60474V8.96377ZM5.47304 9.22079C5.47304 9.29177 5.41619 9.3493 5.34606 9.3493C5.27593 9.3493 5.21908 9.29177 5.21908 9.22079C5.21908 9.14982 5.27593 9.09228 5.34606 9.09228C5.41619 9.09228 5.47304 9.14982 5.47304 9.22079ZM5.34606 9.86336C5.41619 9.86336 5.47304 9.80582 5.47304 9.73484C5.47304 9.66387 5.41619 9.60633 5.34606 9.60633C5.27593 9.60633 5.21908 9.66387 5.21908 9.73484C5.21908 9.80582 5.27593 9.86336 5.34606 9.86336ZM5.8539 9.73484C5.8539 9.80582 5.79705 9.86336 5.72691 9.86336C5.65678 9.86336 5.59993 9.80582 5.59993 9.73484C5.59993 9.66387 5.65678 9.60633 5.72691 9.60633C5.79705 9.60633 5.8539 9.66387 5.8539 9.73484ZM5.53649 9.60633C5.60662 9.60633 5.66347 9.54879 5.66347 9.47782C5.66347 9.40684 5.60662 9.34931 5.53649 9.34931C5.46636 9.34931 5.4095 9.40684 5.4095 9.47782C5.4095 9.54879 5.46636 9.60633 5.53649 9.60633ZM5.8539 9.22079C5.8539 9.29177 5.79705 9.3493 5.72691 9.3493C5.65678 9.3493 5.59993 9.29177 5.59993 9.22079C5.59993 9.14982 5.65678 9.09228 5.72691 9.09228C5.79705 9.09228 5.8539 9.14982 5.8539 9.22079Z" fill="#013399"/>
</g>
</g>
</g>
</g>
</g>
</g>
</svg>
