<svg width="24" height="24" viewBox="0 0 24 24" fill="none" xmlns="http://www.w3.org/2000/svg">
<path d="M11.1172 0.668437C11.639 0.273126 12.36 0.273126 12.8819 0.668438L20.498 6.43812C20.8119 6.67591 21.0165 7.03033 21.0655 7.42106L22.2541 16.9016C22.3355 17.5512 21.975 18.1757 21.3718 18.4299L12.567 22.1408C12.2041 22.2938 11.7949 22.2938 11.432 22.1408L2.62727 18.4299C2.02401 18.1757 1.66348 17.5512 1.74492 16.9016L2.93356 7.42106C2.98254 7.03033 3.18717 6.67591 3.50106 6.43812L11.1172 0.668437Z" fill="#FFD54B"/>
<g clip-path="url(#clip0_2726_72627)">
<path d="M11.9995 9L13.9995 12L16.4995 10L15.4995 15H8.49951L7.49951 10L9.99951 12L11.9995 9Z" fill="white" stroke="white" stroke-width="0.547953" stroke-linecap="round" stroke-linejoin="round"/>
</g>
<defs>
<clipPath id="clip0_2726_72627">
<rect width="12" height="12" fill="white" transform="translate(5.99951 6)"/>
</clipPath>
</defs>
</svg>
