<svg width="56" height="56" viewBox="0 0 56 56" fill="none" xmlns="http://www.w3.org/2000/svg">
<g id="Logo">
<g id="Mask Group">
<mask id="mask0_2625_310817" style="mask-type:alpha" maskUnits="userSpaceOnUse" x="0" y="0" width="56" height="56">
<rect id="Rectangle 856" width="56" height="56" rx="13.44" fill="#6A5AE0"/>
</mask>
<g mask="url(#mask0_2625_310817)">
<path id="Vector" d="M57.6801 40.3891C57.68 48.2424 54.5352 55.7741 48.9376 61.3273C43.34 66.8805 35.7482 70.0002 27.8321 70.0005C27.4238 70.0005 27.0233 69.9928 26.615 69.9775C24.4346 69.8892 22.2704 69.5663 20.1602 69.0147C20.5684 68.8084 20.9689 68.602 21.3695 68.3804C21.3772 68.3804 21.3849 68.3728 21.4003 68.3652L21.408 68.3575C21.8316 68.1283 22.2476 67.899 22.6558 67.6621C22.756 67.601 22.8561 67.5475 22.9562 67.494C23.3414 67.2648 23.7265 67.0355 24.1039 66.791C24.2156 66.731 24.3236 66.6647 24.4275 66.5923C24.7202 66.4165 25.0129 66.2255 25.2979 66.0345C25.4981 65.9045 25.7061 65.767 25.8987 65.6371C26.1914 65.4384 26.4764 65.2397 26.7614 65.0334C26.954 64.9035 27.1311 64.7736 27.316 64.6284C27.5625 64.4603 27.8013 64.2769 28.04 64.0935C28.2557 63.9406 28.4637 63.7802 28.6717 63.612C28.9644 63.3904 29.2494 63.1612 29.5344 62.9167C29.6576 62.825 29.7809 62.7256 29.9041 62.6186C30.2122 62.3665 30.5126 62.1066 30.813 61.8392C30.9748 61.7016 31.1365 61.5641 31.2983 61.4113C31.4755 61.2584 31.6449 61.1056 31.8144 60.9451C32.1379 60.6547 32.4537 60.3491 32.7695 60.0434C32.8118 60.0091 32.8505 59.9707 32.8851 59.9288C33.1932 59.6384 33.4936 59.3327 33.7863 59.0271C33.9942 58.8284 34.1868 58.6221 34.3717 58.4157C34.5951 58.1941 34.803 57.9649 35.011 57.7356C35.1342 57.6057 35.2498 57.4758 35.3576 57.3459C35.6349 57.0402 35.9045 56.7269 36.1741 56.4136C36.3128 56.2531 36.4514 56.085 36.5824 55.9169C36.7826 55.6877 36.9752 55.4584 37.1524 55.2215C37.3372 54.9999 37.5144 54.7707 37.6838 54.5414C37.8456 54.3427 37.9997 54.1364 38.146 53.9377C38.3463 53.6779 38.5388 53.4181 38.7237 53.1506C38.9086 52.8832 39.1089 52.6157 39.2937 52.3406C39.3855 52.2206 39.4703 52.0956 39.5479 51.9662C39.8098 51.5841 40.064 51.1944 40.3105 50.8046C40.6263 50.3232 40.9267 49.8342 41.2117 49.3374C41.3426 49.1235 41.4659 48.9095 41.5891 48.6956C42.588 46.9478 43.4781 45.141 44.2543 43.2853C44.3698 43.0254 44.4776 42.7656 44.5778 42.4982C44.701 42.2154 44.8089 41.9251 44.9167 41.6347C45.0091 41.3978 45.1016 41.1532 45.1863 40.9087C45.2864 40.6413 45.3789 40.3662 45.4713 40.0987C45.8102 39.1206 46.1183 38.1348 46.3879 37.1337C46.4572 36.8816 46.5266 36.637 46.5882 36.3849C46.6344 36.2244 46.6729 36.0715 46.7114 35.9111L46.8963 35.1316C47.1428 34.0694 47.3508 32.9996 47.5279 31.9145L47.6435 31.1809C47.6589 31.0663 47.6743 30.9593 47.6897 30.8447C47.7359 30.5543 47.7744 30.2639 47.8052 29.9735C47.8591 29.5379 47.9131 29.1024 47.9516 28.6668C47.967 28.5522 47.9747 28.4375 47.9824 28.3229C48.0132 28.0249 48.0363 27.7192 48.0594 27.4212C48.0825 27.1232 48.0979 26.8099 48.1133 26.5042C48.1287 26.2902 48.1364 26.0763 48.1441 25.8547C48.175 25.1516 48.1904 24.4486 48.1904 23.7456C48.1904 23.3864 48.1904 23.0349 48.175 22.6834C48.175 22.5 48.175 22.3242 48.1673 22.1408C48.1441 21.5066 48.1133 20.8799 48.0671 20.2533V20.2304C48.0594 20.0776 48.0517 19.9247 48.0363 19.7719C48.0055 19.3516 47.967 18.939 47.9285 18.5187C47.9287 18.5055 47.9261 18.4925 47.9208 18.4805C48.9586 19.4182 49.9289 20.4268 50.8247 21.4989L50.8478 21.5218C50.852 21.526 50.8547 21.5313 50.8555 21.5371C55.2773 26.839 57.6915 33.5077 57.6801 40.3891Z" fill="#FF8FA2"/>
<path id="Vector_2" d="M48.1599 23.6082C48.164 32.7493 45.6797 41.7215 40.9698 49.5752C36.2599 57.4289 29.4996 63.8719 21.4045 68.2224C21.3944 68.2341 21.3809 68.2421 21.3659 68.2454L21.3583 68.253C20.9581 68.467 20.558 68.6733 20.1579 68.8797C17.6466 68.2224 15.2348 67.2355 12.9861 65.9451C11.3594 65.0146 9.82394 63.9349 8.3999 62.7202C8.66923 62.4374 8.93086 62.1547 9.19249 61.8643L9.20011 61.8566C9.20011 61.849 9.20788 61.8413 9.21557 61.8337H9.22319C17.6436 52.5396 22.2937 40.4743 22.274 27.9718C22.2752 22.5861 21.4181 17.2342 19.7346 12.1146H19.7269C19.7269 12.0993 19.7192 12.084 19.7192 12.0687H19.7115C19.7071 12.0564 19.7045 12.0436 19.7039 12.0305C19.55 11.5643 19.3884 11.0982 19.2191 10.6397H27.8221C35.2453 10.6295 42.4039 13.3772 47.8906 18.3428C47.9521 18.9236 47.9983 19.5044 48.0368 20.0929C48.1214 21.2544 48.1599 22.4237 48.1599 23.6082Z" fill="#9087E5"/>
<path id="Vector_3" d="M22.4001 27.9716C22.4001 28.4836 22.3924 28.9957 22.3772 29.5C22.3695 29.8286 22.3543 30.1496 22.339 30.4782C22.2779 31.7926 22.1634 33.0994 21.9954 34.3985C21.9573 34.7348 21.9114 35.0634 21.858 35.392C21.8046 35.797 21.7358 36.1944 21.6671 36.5994C21.6061 36.9815 21.5373 37.356 21.461 37.7381C21.4457 37.8298 21.4228 37.9215 21.4076 38.0132C21.3465 38.3265 21.2778 38.6475 21.209 38.9608C20.8504 40.5894 20.4096 42.1988 19.8882 43.7829C19.789 44.0962 19.6821 44.4019 19.5752 44.6999C19.5659 44.7366 19.5531 44.7725 19.537 44.8069C19.4302 45.1202 19.3233 45.4182 19.2087 45.7239C19.1782 45.8156 19.14 45.915 19.1019 46.0143C18.9797 46.3429 18.8499 46.6639 18.7201 46.9848C18.5751 47.3517 18.4224 47.7185 18.262 48.0776C18.1017 48.4521 17.9337 48.8266 17.7658 49.201C17.6054 49.5449 17.4375 49.8888 17.2772 50.225C17.1016 50.5842 16.926 50.9357 16.7427 51.2796C16.5595 51.6235 16.3763 51.975 16.1854 52.3189C15.9945 52.6628 15.8036 53.0067 15.6128 53.343C15.4219 53.6792 15.2158 54.0231 15.0096 54.3593C14.8035 54.6956 14.5974 55.0242 14.3836 55.3528C13.9637 56.01 13.5285 56.6596 13.078 57.2939C12.6276 57.9281 12.1542 58.5548 11.6809 59.1738C10.9632 60.0832 10.2201 60.9696 9.45153 61.8332H9.4439C9.43626 61.8408 9.43626 61.8408 9.43626 61.8485C9.43626 61.8505 9.4355 61.8524 9.43405 61.8539C9.4326 61.8553 9.43069 61.8561 9.42863 61.8561C9.16905 62.1465 8.90183 62.4369 8.63461 62.7197C7.43168 61.6849 6.31342 60.5554 5.29062 59.3419C5.28286 59.3274 5.2725 59.3145 5.26008 59.3037C0.770159 53.9736 -1.68854 47.2241 -1.67991 40.2523V10.6396H19.3691C19.537 11.0982 19.6974 11.5567 19.8424 12.0228L19.8501 12.0305C19.8507 12.0435 19.8533 12.0564 19.8577 12.0687H19.8653V12.0916C19.8649 12.0958 19.8653 12.1 19.8666 12.1039C19.8679 12.1079 19.8701 12.1115 19.873 12.1145H19.8806C19.8874 12.1437 19.8976 12.1719 19.9111 12.1986L20.0028 12.4966C20.2623 13.3067 20.499 14.1244 20.7128 14.9574C20.8655 15.5152 21.0029 16.0883 21.1327 16.6615C21.3694 17.7008 21.5755 18.7631 21.7511 19.8406C21.7893 20.1004 21.8351 20.3526 21.8656 20.6124C21.9573 21.2467 22.0412 21.881 22.1099 22.5229C22.1405 22.7598 22.1634 23.0043 22.1787 23.2413C22.2245 23.6845 22.255 24.1354 22.2855 24.5786C22.3619 25.702 22.4001 26.833 22.4001 27.9716Z" fill="#C4D0FB"/>
</g>
</g>
<rect id="Rectangle 857" width="56" height="51.52" rx="13.44" fill="#09074A"/>
<g id="Mask Group_2">
<mask id="mask1_2625_310817" style="mask-type:alpha" maskUnits="userSpaceOnUse" x="12" y="10" width="31" height="36">
<path id="Union" fill-rule="evenodd" clip-rule="evenodd" d="M26.953 37.5048C27.9897 37.4559 29.0092 37.2876 29.9931 37.008L31.3817 38.4093C32.6879 39.7274 34.8105 39.7322 36.1227 38.4201C37.4348 37.1079 37.4397 34.9757 36.1335 33.6576L34.5568 32.0665C34.2516 31.7585 33.9018 31.5222 33.5282 31.3577C32.4802 30.6533 31.0212 30.7613 29.8424 31.3336C28.8681 31.8068 27.8001 32.0828 26.6998 32.1347C24.6947 32.2293 22.7264 31.5726 21.1797 30.2931C19.6331 29.0136 18.6192 27.2032 18.3364 25.2159C18.0535 23.2286 18.5221 21.2073 19.6503 19.547C20.7786 17.8868 22.4856 16.7071 24.4374 16.2385C26.3893 15.7699 28.4457 16.0461 30.2048 17.0131C31.9638 17.9802 33.2989 19.5685 33.9492 21.4676C34.306 22.5097 34.4424 23.6043 34.3612 24.6844C34.2499 26.1648 34.8252 27.7602 36.1876 28.3498C37.5501 28.9394 39.162 28.3128 39.4692 26.8604C39.9677 24.5028 39.8265 22.0371 39.0353 19.7262C37.9516 16.5611 35.7264 13.9138 32.7947 12.3021C29.863 10.6904 26.4355 10.23 23.1824 11.011C19.9293 11.792 17.0844 13.7582 15.204 16.5253C13.3235 19.2923 12.5426 22.6612 13.014 25.9734C13.4854 29.2856 15.1752 32.3028 17.7529 34.4354C20.3307 36.5679 23.6112 37.6623 26.953 37.5048ZM37.0958 39.8954C35.7836 41.2076 35.7788 43.3398 37.085 44.6579C38.3912 45.976 40.5138 45.9808 41.8259 44.6686C43.1381 43.3565 43.1429 41.2242 41.8367 39.9061C40.5305 38.588 38.4079 38.5832 37.0958 39.8954Z" fill="white"/>
</mask>
<g mask="url(#mask1_2625_310817)">
<path id="Vector_4" fill-rule="evenodd" clip-rule="evenodd" d="M31.0708 56.5595L58.24 29.2332L52.3656 23.5195L21.28 55.069L31.0708 56.5595Z" fill="white"/>
<path id="Vector_5" fill-rule="evenodd" clip-rule="evenodd" d="M25.7338 49.2799L52.0797 23.3431L46.3833 17.9199L16.2397 47.8652L25.7338 49.2799Z" fill="white"/>
<path id="Vector_6" fill-rule="evenodd" clip-rule="evenodd" d="M17.8098 48.1751L48.7688 16.9907L43.3425 11.1612L12.3835 42.3456L17.8098 48.1751Z" fill="white"/>
<path id="Vector_7" fill-rule="evenodd" clip-rule="evenodd" d="M12.2194 43.1194L43.1198 11.8468L35.0906 8.39941L7.83984 35.9784L12.2194 43.1194Z" fill="white"/>
<path id="Vector_8" fill-rule="evenodd" clip-rule="evenodd" d="M7.83984 36.3994L35.8398 8.39941L20.8398 9.89941L7.83984 24.1494V36.3994Z" fill="white"/>
</g>
</g>
</g>
</svg>
