<svg width="30" height="30" viewBox="0 0 30 30" fill="none" xmlns="http://www.w3.org/2000/svg">
<path d="M15 25.8C20.9646 25.8 25.7999 20.9646 25.7999 15C25.7999 9.03528 20.9646 4.19995 15 4.19995C9.03528 4.19995 4.19995 9.03528 4.19995 15C4.19995 20.9646 9.03528 25.8 15 25.8Z" stroke="#6A5AE0" stroke-width="2" stroke-linecap="round" stroke-linejoin="round"/>
<path d="M7.38 7.38L22.62 22.62" stroke="#6A5AE0" stroke-width="2" stroke-linecap="round" stroke-linejoin="round"/>
<path d="M7.38 22.62L22.62 7.38" stroke="#6A5AE0" stroke-width="2" stroke-linecap="round" stroke-linejoin="round"/>
<path d="M15 4.19995C15 7.06429 16.1379 9.81131 18.1632 11.8367C20.1886 13.8621 22.9357 15 25.8 15" stroke="#6A5AE0" stroke-width="2" stroke-linecap="round" stroke-linejoin="round"/>
<path d="M4.19995 15C7.06429 15 9.81131 16.1379 11.8367 18.1632C13.8621 20.1886 14.9999 22.9357 14.9999 25.8" stroke="#6A5AE0" stroke-width="2" stroke-linecap="round" stroke-linejoin="round"/>
</svg>
