<svg width="40" height="40" viewBox="0 0 40 40" fill="none" xmlns="http://www.w3.org/2000/svg">
<mask id="mask0_2702_43540" style="mask-type:alpha" maskUnits="userSpaceOnUse" x="0" y="0" width="40" height="40">
<rect width="40" height="40" rx="9.6" fill="#6A5AE0"/>
</mask>
<g mask="url(#mask0_2702_43540)">
<path d="M41.2865 28.899C41.2864 34.5085 39.0402 39.8883 35.0419 43.8549C31.0436 47.8214 25.6209 50.0498 19.9665 50.05C19.6749 50.05 19.3888 50.0445 19.0972 50.0336C17.5398 49.9705 15.9939 49.7399 14.4866 49.3459C14.7782 49.1985 15.0643 49.0511 15.3504 48.8928C15.3559 48.8928 15.3614 48.8874 15.3724 48.8819L15.3779 48.8765C15.6805 48.7127 15.9776 48.549 16.2692 48.3798C16.3407 48.3361 16.4123 48.2979 16.4838 48.2597C16.7589 48.0959 17.034 47.9322 17.3036 47.7575C17.3833 47.7147 17.4604 47.6673 17.5347 47.6156C17.7437 47.49 17.9528 47.3536 18.1564 47.2171C18.2994 47.1243 18.448 47.0261 18.5855 46.9333C18.7946 46.7914 18.9982 46.6495 19.2017 46.5021C19.3393 46.4093 19.4658 46.3165 19.5979 46.2128C19.7739 46.0927 19.9445 45.9617 20.1151 45.8307C20.2691 45.7216 20.4177 45.6069 20.5662 45.4868C20.7753 45.3286 20.9789 45.1648 21.1824 44.9901C21.2705 44.9246 21.3585 44.8537 21.4465 44.7773C21.6666 44.5971 21.8812 44.4116 22.0958 44.2205C22.2113 44.1223 22.3268 44.024 22.4424 43.9148C22.5689 43.8057 22.69 43.6965 22.811 43.5819C23.0421 43.3745 23.2677 43.1561 23.4933 42.9378C23.5235 42.9133 23.5511 42.8859 23.5758 42.8559C23.7959 42.6485 24.0104 42.4302 24.2195 42.2118C24.3681 42.0699 24.5056 41.9226 24.6377 41.7752C24.7972 41.6169 24.9458 41.4531 25.0943 41.2894C25.1824 41.1966 25.2649 41.1038 25.3419 41.011C25.54 40.7927 25.7325 40.5689 25.9251 40.3451C26.0242 40.2305 26.1232 40.1104 26.2167 39.9903C26.3598 39.8266 26.4973 39.6628 26.6239 39.4936C26.7559 39.3353 26.8825 39.1716 27.0035 39.0078C27.119 38.8659 27.2291 38.7185 27.3336 38.5766C27.4767 38.391 27.6142 38.2054 27.7463 38.0144C27.8783 37.8234 28.0214 37.6323 28.1534 37.4358C28.2189 37.3501 28.2796 37.2608 28.335 37.1684C28.522 36.8954 28.7036 36.6171 28.8797 36.3387C29.1052 35.9948 29.3198 35.6455 29.5234 35.2907C29.6169 35.1379 29.705 34.985 29.793 34.8322C30.5065 33.5838 31.1423 32.2932 31.6967 30.9677C31.7792 30.7821 31.8562 30.5965 31.9277 30.4055C32.0158 30.2035 32.0928 29.9961 32.1698 29.7887C32.2358 29.6195 32.3019 29.4448 32.3624 29.2702C32.4339 29.0791 32.4999 28.8826 32.566 28.6916C32.808 27.9929 33.0281 27.2888 33.2207 26.5738C33.2702 26.3936 33.3197 26.219 33.3637 26.0388C33.3968 25.9242 33.4243 25.8151 33.4518 25.7004L33.5838 25.1437C33.7599 24.385 33.9084 23.6208 34.035 22.8457L34.1175 22.3217C34.1285 22.2399 34.1395 22.1634 34.1505 22.0816C34.1835 21.8741 34.211 21.6667 34.2331 21.4593C34.2716 21.1482 34.3101 20.8371 34.3376 20.5259C34.3486 20.4441 34.3541 20.3622 34.3596 20.2803C34.3816 20.0674 34.3981 19.8491 34.4146 19.6362C34.4311 19.4234 34.4421 19.1996 34.4531 18.9812C34.4641 18.8284 34.4696 18.6756 34.4751 18.5173C34.4971 18.0151 34.5081 17.5129 34.5081 17.0108C34.5081 16.7542 34.5082 16.5032 34.4971 16.2521C34.4971 16.1211 34.4971 15.9955 34.4916 15.8645C34.4751 15.4115 34.4531 14.9639 34.4201 14.5163L34.4201 14.5C34.4146 14.3908 34.4091 14.2816 34.3981 14.1725C34.3761 13.8722 34.3486 13.5775 34.3211 13.2773C34.3212 13.2679 34.3194 13.2586 34.3156 13.25C35.0569 13.9198 35.75 14.6402 36.3898 15.406L36.4063 15.4224C36.4093 15.4254 36.4113 15.4292 36.4118 15.4333C39.5703 19.2204 41.2947 23.9837 41.2865 28.899Z" fill="#FF8FA2"/>
<path d="M34.4867 16.9131C34.4896 23.4425 32.7151 29.8512 29.3509 35.461C25.9867 41.0708 21.1579 45.6729 15.3756 48.7805C15.3685 48.7888 15.3588 48.7945 15.3481 48.7968L15.3427 48.8023C15.0568 48.9551 14.771 49.1025 14.4852 49.2499C12.6915 48.7804 10.9687 48.0755 9.36254 47.1538C8.2006 46.4892 7.10384 45.7179 6.08667 44.8503C6.27905 44.6483 6.46592 44.4463 6.6528 44.2389L6.65824 44.2334C6.65824 44.228 6.6638 44.2225 6.66929 44.2171L6.67473 44.2171C12.6893 37.5784 16.0108 28.9603 15.9967 20.03C15.9976 16.1831 15.3854 12.3603 14.1829 8.70343L14.1774 8.70343C14.1774 8.69251 14.1719 8.68159 14.1719 8.67068L14.1664 8.67068C14.1632 8.66189 14.1614 8.65269 14.1609 8.64337C14.051 8.3104 13.9356 7.97744 13.8146 7.64992L19.9597 7.64992C25.262 7.64263 30.3752 9.60532 34.2943 13.1522C34.3383 13.567 34.3712 13.9819 34.3987 14.4022C34.4592 15.2319 34.4867 16.0671 34.4867 16.9131Z" fill="#9087E5"/>
<path d="M16 19.9801C16 20.3458 15.9946 20.7115 15.9837 21.0718C15.9782 21.3065 15.9673 21.5358 15.9564 21.7705C15.9128 22.7094 15.831 23.6428 15.711 24.5707C15.6838 24.8109 15.651 25.0456 15.6129 25.2803C15.5747 25.5696 15.5256 25.8535 15.4765 26.1428C15.4329 26.4157 15.3838 26.6832 15.3293 26.9561C15.3184 27.0216 15.302 27.0871 15.2911 27.1526C15.2475 27.3764 15.1984 27.6057 15.1493 27.8295C14.8932 28.9928 14.5783 30.1424 14.2059 31.2738C14.135 31.4976 14.0586 31.716 13.9823 31.9288C13.9756 31.9551 13.9665 31.9807 13.955 32.0053C13.8787 32.2291 13.8023 32.4419 13.7205 32.6603C13.6987 32.7258 13.6715 32.7968 13.6442 32.8677C13.5569 33.1024 13.4642 33.3317 13.3715 33.5609C13.2679 33.823 13.1588 34.085 13.0443 34.3415C12.9298 34.609 12.8098 34.8765 12.6898 35.1439C12.5753 35.3896 12.4553 35.6352 12.3408 35.8754C12.2154 36.1319 12.09 36.383 11.9591 36.6287C11.8282 36.8743 11.6973 37.1254 11.561 37.371C11.4247 37.6167 11.2883 37.8623 11.152 38.1025C11.0156 38.3426 10.8684 38.5883 10.7212 38.8284C10.5739 39.0686 10.4267 39.3033 10.274 39.5381C9.97405 40.0075 9.66321 40.4715 9.34146 40.9245C9.01971 41.3776 8.6816 41.8252 8.34349 42.2673C7.83087 42.9169 7.30009 43.5501 6.7511 44.1669L6.74564 44.1669C6.74019 44.1724 6.74019 44.1724 6.74019 44.1778C6.74019 44.1792 6.73964 44.1807 6.73861 44.1817C6.73757 44.1827 6.73621 44.1833 6.73474 44.1833C6.54932 44.3907 6.35845 44.5981 6.16758 44.8001C5.30835 44.061 4.50959 43.2542 3.77901 42.3874C3.77347 42.377 3.76607 42.3678 3.7572 42.3601C0.550114 38.553 -1.2061 33.7319 -1.19993 28.752L-1.19993 7.6001L13.8351 7.6001C13.955 7.92761 14.0695 8.25512 14.1732 8.58809L14.1786 8.59354C14.1791 8.60285 14.181 8.61206 14.1841 8.62085L14.1895 8.62085L14.1895 8.63722C14.1892 8.64018 14.1895 8.64318 14.1904 8.64602C14.1914 8.64884 14.193 8.65144 14.195 8.65359L14.2004 8.65359C14.2053 8.67441 14.2126 8.69456 14.2222 8.71363L14.2877 8.92652C14.4731 9.50512 14.6422 10.0892 14.7949 10.6842C14.9039 11.0826 15.0021 11.492 15.0948 11.9014C15.2638 12.6438 15.4111 13.4025 15.5365 14.1722C15.5638 14.3578 15.5965 14.5379 15.6183 14.7235C15.6838 15.1766 15.7437 15.6296 15.7928 16.0881C15.8146 16.2574 15.831 16.432 15.8419 16.6012C15.8746 16.9178 15.8964 17.2399 15.9182 17.5565C15.9728 18.3589 16 19.1668 16 19.9801Z" fill="#C4D0FB"/>
</g>
<rect width="40" height="36" rx="9.6" fill="white"/>
<mask id="mask1_2702_43540" style="mask-type:alpha" maskUnits="userSpaceOnUse" x="9" y="5" width="22" height="26">
<path fill-rule="evenodd" clip-rule="evenodd" d="M19.3552 24.6304C20.1033 24.5958 20.839 24.4766 21.5489 24.2786L22.5507 25.2709C23.4934 26.2047 25.0251 26.2081 25.972 25.2787C26.9188 24.3492 26.9222 22.8387 25.9796 21.9049L24.8421 20.7781C24.6301 20.5681 24.3882 20.4051 24.1299 20.2892C23.3829 19.7585 22.3283 19.8281 21.4774 20.2411C20.7643 20.5872 19.9805 20.7891 19.1724 20.8265C17.7256 20.8935 16.3052 20.4283 15.1892 19.5219C14.0731 18.6156 13.3415 17.3332 13.1374 15.9254C12.9333 14.5177 13.2714 13.0858 14.0855 11.9098C14.8997 10.7337 16.1314 9.89807 17.5399 9.56612C18.9484 9.23418 20.4323 9.42985 21.7017 10.1149C22.971 10.7999 23.9344 11.925 24.4036 13.2703C24.6551 13.9912 24.7549 14.7477 24.7048 15.4953C24.6328 16.5712 25.0505 17.734 26.0429 18.1556C27.0166 18.5692 28.1643 18.124 28.387 17.0898C28.7466 15.4199 28.6447 13.6735 28.0738 12.0367C27.2918 9.79462 25.6861 7.91943 23.5705 6.77773C21.455 5.63604 18.9817 5.30993 16.6343 5.86317C14.2868 6.4164 12.234 7.8092 10.877 9.76928C9.52005 11.7294 8.95658 14.1158 9.29673 16.462C9.63689 18.8082 10.8562 20.9456 12.7164 22.4562C14.5765 23.9668 16.9437 24.7421 19.3552 24.6304ZM26.6742 26.324C25.7274 27.2534 25.7238 28.7639 26.6664 29.6976C27.6089 30.6313 29.1407 30.6346 30.0875 29.7052C31.0342 28.7758 31.0378 27.2653 30.0952 26.3316C29.1527 25.3979 27.6209 25.3946 26.6742 26.324Z" fill="#6A5AE0"/>
</mask>
<g mask="url(#mask1_2702_43540)">
<path fill-rule="evenodd" clip-rule="evenodd" d="M22.3265 38.1281L41.9319 18.771L37.6929 14.7236L15.2615 37.0722L22.3265 38.1281Z" fill="#6A5AE0"/>
<path fill-rule="evenodd" clip-rule="evenodd" d="M18.4754 32.9712L37.4868 14.5984L33.3762 10.7568L11.6245 31.9691L18.4754 32.9712Z" fill="#6A5AE0"/>
<path fill-rule="evenodd" clip-rule="evenodd" d="M12.7573 32.1887L35.0974 10.0987L31.1817 5.96931L8.84159 28.0593L12.7573 32.1887Z" fill="#6A5AE0"/>
<path fill-rule="evenodd" clip-rule="evenodd" d="M8.72331 28.6077L31.0212 6.45519L25.2272 4.01318L5.56299 23.5492L8.72331 28.6077Z" fill="#6A5AE0"/>
<path fill-rule="evenodd" clip-rule="evenodd" d="M5.56299 23.8474L25.7679 4.01318L14.9438 5.07573L5.56299 15.17V23.8474Z" fill="#6A5AE0"/>
</g>
</svg>
