<svg width="104" height="28" viewBox="0 0 104 28" fill="none" xmlns="http://www.w3.org/2000/svg">
<path d="M20.1531 24.859C20.4777 25.3864 20.5994 25.8631 20.5182 26.2891C20.4371 26.7353 20.2343 27.1005 19.9097 27.3844C19.5851 27.6887 19.1896 27.8814 18.723 27.9626C18.2768 28.0437 17.8204 27.993 17.3538 27.8104C16.9076 27.6481 16.5222 27.3236 16.1976 26.8368L14.0373 23.3072C13.7736 22.9015 13.4287 22.5972 13.0027 22.3944C12.597 22.2118 12.0696 22.1205 11.4205 22.1205L15.0109 20.7513C15.944 20.7513 16.7047 20.9136 17.293 21.2382C17.9015 21.5627 18.4492 22.1205 18.936 22.9117L20.1531 24.859ZM11.451 22.1205C9.34134 22.1205 7.48528 21.6641 5.88279 20.7513C4.30057 19.8182 3.0632 18.52 2.17067 16.8566C1.29843 15.1933 0.862305 13.2561 0.862305 11.0451C0.862305 9.36142 1.10572 7.85021 1.59256 6.51141C2.09968 5.15233 2.81979 3.9961 3.75289 3.04272C4.68598 2.06905 5.80165 1.31851 7.09987 0.791105C8.41838 0.263702 9.86874 0 11.451 0C13.6011 0 15.4673 0.456408 17.0496 1.36922C18.6318 2.28204 19.859 3.57012 20.7312 5.23347C21.6238 6.87654 22.07 8.80359 22.07 11.0146C22.07 12.6983 21.8165 14.2196 21.3094 15.5787C20.8022 16.9378 20.0821 18.1042 19.149 19.0778C18.2159 20.0515 17.1003 20.802 15.802 21.3294C14.5038 21.8568 13.0535 22.1205 11.451 22.1205ZM11.451 18.1042C12.6478 18.1042 13.662 17.8303 14.4937 17.2826C15.3456 16.7147 15.9947 15.9033 16.441 14.8485C16.9076 13.7734 17.1408 12.5056 17.1408 11.0451C17.1408 8.81373 16.6439 7.08953 15.6499 5.87244C14.656 4.63507 13.2563 4.01638 11.451 4.01638C10.2744 4.01638 9.2602 4.29023 8.40824 4.83792C7.55628 5.38561 6.90717 6.18686 6.4609 7.24166C6.01464 8.29647 5.7915 9.56427 5.7915 11.0451C5.7915 13.2561 6.28848 14.9904 7.28244 16.2481C8.27639 17.4855 9.6659 18.1042 11.451 18.1042Z" fill="white"/>
<path d="M30.5257 22.1205C29.268 22.1205 28.2234 21.8873 27.3917 21.4207C26.56 20.9542 25.9413 20.2543 25.5356 19.3212C25.1502 18.3679 24.9575 17.1913 24.9575 15.7917V8.91516C24.9575 8.14434 25.1502 7.56622 25.5356 7.18081C25.9413 6.7954 26.5093 6.60269 27.2396 6.60269C27.9698 6.60269 28.5378 6.7954 28.9435 7.18081C29.3492 7.56622 29.552 8.14434 29.552 8.91516V15.9134C29.552 16.8059 29.7346 17.4753 30.0997 17.9216C30.4648 18.3476 31.043 18.5606 31.8341 18.5606C32.7063 18.5606 33.4163 18.2563 33.964 17.6478C34.5319 17.0189 34.8159 16.1974 34.8159 15.1832V8.91516C34.8159 8.14434 35.0086 7.56622 35.394 7.18081C35.7997 6.7954 36.3677 6.60269 37.098 6.60269C37.8485 6.60269 38.4165 6.7954 38.8019 7.18081C39.2076 7.56622 39.4104 8.14434 39.4104 8.91516V19.7168C39.4104 21.2787 38.67 22.0597 37.1892 22.0597C36.459 22.0597 35.9012 21.8568 35.5157 21.4511C35.1303 21.0455 34.9376 20.4673 34.9376 19.7168V17.6782L35.394 18.8648C34.9478 19.8994 34.3088 20.7006 33.4771 21.2686C32.6455 21.8366 31.6616 22.1205 30.5257 22.1205Z" fill="white"/>
<path d="M50.4203 22.1205C48.6555 22.1205 47.1342 21.8061 45.8562 21.1773C44.5986 20.5282 43.6249 19.6255 42.9352 18.4693C42.2658 17.2928 41.9311 15.9134 41.9311 14.3312C41.9311 12.7896 42.2557 11.4406 42.9048 10.2844C43.5539 9.10786 44.4566 8.19505 45.6128 7.54594C46.7893 6.87654 48.118 6.54184 49.5988 6.54184C50.6739 6.54184 51.6475 6.7244 52.5198 7.08953C53.392 7.43437 54.1426 7.94149 54.7714 8.61089C55.4002 9.26 55.8769 10.0612 56.2015 11.0146C56.526 11.9477 56.6883 12.9924 56.6883 14.1486C56.6883 14.534 56.5666 14.8282 56.3232 15.031C56.0798 15.2136 55.7248 15.3049 55.2582 15.3049H45.7041V12.9315H53.3717L52.8849 13.3575C52.8849 12.5258 52.7632 11.8362 52.5198 11.2885C52.2764 10.7205 51.9214 10.2945 51.4548 10.0105C51.0086 9.72655 50.4507 9.58456 49.7813 9.58456C49.0308 9.58456 48.3918 9.75698 47.8644 10.1018C47.337 10.4467 46.9313 10.9436 46.6473 11.5927C46.3633 12.2419 46.2214 13.0228 46.2214 13.9356V14.1791C46.2214 15.7207 46.5763 16.8566 47.2863 17.5869C48.0166 18.3172 49.0916 18.6823 50.5116 18.6823C50.9984 18.6823 51.5562 18.6214 52.1851 18.4997C52.8139 18.378 53.4022 18.1853 53.9499 17.9216C54.4164 17.6985 54.8322 17.6275 55.1974 17.7086C55.5625 17.7695 55.8465 17.9317 56.0493 18.1954C56.2522 18.4591 56.3637 18.7634 56.384 19.1083C56.4246 19.4531 56.3536 19.7979 56.171 20.1428C55.9885 20.4673 55.6842 20.7412 55.2582 20.9643C54.5685 21.3497 53.7876 21.6337 52.9153 21.8163C52.0634 22.0191 51.2317 22.1205 50.4203 22.1205Z" fill="white"/>
<path d="M66.8153 22.1205C65.0505 22.1205 63.5292 21.8061 62.2512 21.1773C60.9936 20.5282 60.0199 19.6255 59.3302 18.4693C58.6608 17.2928 58.3261 15.9134 58.3261 14.3312C58.3261 12.7896 58.6507 11.4406 59.2998 10.2844C59.9489 9.10786 60.8516 8.19505 62.0078 7.54594C63.1843 6.87654 64.513 6.54184 65.9938 6.54184C67.0689 6.54184 68.0425 6.7244 68.9148 7.08953C69.787 7.43437 70.5376 7.94149 71.1664 8.61089C71.7952 9.26 72.2719 10.0612 72.5965 11.0146C72.921 11.9477 73.0833 12.9924 73.0833 14.1486C73.0833 14.534 72.9616 14.8282 72.7182 15.031C72.4748 15.2136 72.1198 15.3049 71.6532 15.3049H62.0991V12.9315H69.7667L69.2799 13.3575C69.2799 12.5258 69.1582 11.8362 68.9148 11.2885C68.6714 10.7205 68.3164 10.2945 67.8498 10.0105C67.4036 9.72655 66.8457 9.58456 66.1763 9.58456C65.4258 9.58456 64.7868 9.75698 64.2594 10.1018C63.732 10.4467 63.3263 10.9436 63.0423 11.5927C62.7584 12.2419 62.6164 13.0228 62.6164 13.9356V14.1791C62.6164 15.7207 62.9713 16.8566 63.6813 17.5869C64.4116 18.3172 65.4867 18.6823 66.9066 18.6823C67.3934 18.6823 67.9513 18.6214 68.5801 18.4997C69.2089 18.378 69.7972 18.1853 70.3449 17.9216C70.8114 17.6985 71.2272 17.6275 71.5924 17.7086C71.9575 17.7695 72.2415 17.9317 72.4443 18.1954C72.6472 18.4591 72.7588 18.7634 72.779 19.1083C72.8196 19.4531 72.7486 19.7979 72.566 20.1428C72.3835 20.4673 72.0792 20.7412 71.6532 20.9643C70.9635 21.3497 70.1826 21.6337 69.3103 21.8163C68.4584 22.0191 67.6267 22.1205 66.8153 22.1205Z" fill="white"/>
<path d="M76.4322 21.7858C75.9859 21.7858 75.6107 21.6743 75.3064 21.4511C75.0021 21.2077 74.7993 20.9035 74.6978 20.5383C74.5964 20.1732 74.5964 19.7777 74.6978 19.3517C74.8196 18.9257 75.0528 18.5301 75.3977 18.165L82.8523 9.21943V10.2844H76.2496C75.7019 10.2844 75.276 10.1322 74.9717 9.82797C74.6674 9.5237 74.5153 9.10786 74.5153 8.58046C74.5153 8.01249 74.6674 7.58651 74.9717 7.30252C75.276 6.99825 75.7019 6.84611 76.2496 6.84611H85.0431C85.5908 6.84611 86.0269 6.96782 86.3514 7.21124C86.676 7.45465 86.889 7.75893 86.9904 8.12405C87.1121 8.46889 87.1223 8.8543 87.0209 9.28028C86.9397 9.68598 86.7267 10.0714 86.3819 10.4365L78.7447 19.5647V18.378H85.8038C86.96 18.378 87.5381 18.946 87.5381 20.0819C87.5381 20.6296 87.386 21.0556 87.0817 21.3599C86.7774 21.6439 86.3514 21.7858 85.8038 21.7858H76.4322Z" fill="white"/>
<path d="M93.2791 27.5366C92.7517 27.5366 92.3156 27.3946 91.9707 27.1106C91.6259 26.8266 91.423 26.4513 91.3622 25.9848C91.3013 25.5385 91.3825 25.0618 91.6056 24.5547L93.6442 20.0515V21.938L88.2586 9.58456C88.0558 9.05715 87.9848 8.57032 88.0456 8.12405C88.1268 7.6575 88.3499 7.29238 88.715 7.02867C89.1004 6.74469 89.6278 6.60269 90.2972 6.60269C90.8449 6.60269 91.281 6.73455 91.6056 6.99825C91.9504 7.24166 92.2649 7.71836 92.5488 8.42832L96.1393 17.5565H95.1656L98.8777 8.3979C99.1617 7.70821 99.4761 7.24166 99.8209 6.99825C100.186 6.73455 100.673 6.60269 101.281 6.60269C101.809 6.60269 102.225 6.74469 102.529 7.02867C102.854 7.29238 103.046 7.64736 103.107 8.09363C103.188 8.53989 103.107 9.02672 102.864 9.55413L95.7133 25.7718C95.409 26.4615 95.0641 26.928 94.6787 27.1715C94.3136 27.4149 93.8471 27.5366 93.2791 27.5366Z" fill="white"/>
</svg>
