<svg width="22" height="22" viewBox="0 0 22 22" fill="none" xmlns="http://www.w3.org/2000/svg">
<g id="Frame" clip-path="url(#clip0_2698_66203)">
<path id="Vector" d="M12.75 9.25024H13.625C14.5 9.25024 14.5 10.1252 15.389 12.3364C16.25 14.5002 16.25 15.3752 17.125 15.3752H18" stroke="#6A5AE0" stroke-width="2.25" stroke-linecap="round" stroke-linejoin="round"/>
<path id="Vector_2" d="M11.875 15.3752C13.1875 15.3752 14.5 13.6252 15.375 12.3127C16.25 11.0002 17.5625 9.25024 18.875 9.25024" stroke="#6A5AE0" stroke-width="2.25" stroke-linecap="round" stroke-linejoin="round"/>
<path id="Vector_3" d="M3.125 17.1255C3.125 18.438 3.5625 18.8755 4.875 18.8755C6.1875 18.8755 6.625 15.3755 7.5 11.0005C8.375 6.62549 8.8125 3.12549 10.125 3.12549C11.4375 3.12549 11.875 3.56299 11.875 4.87549" stroke="#6A5AE0" stroke-width="2.25" stroke-linecap="round" stroke-linejoin="round"/>
<path id="Vector_4" d="M4.875 11.0005H10.125" stroke="#6A5AE0" stroke-width="2.25" stroke-linecap="round" stroke-linejoin="round"/>
</g>
<defs>
<clipPath id="clip0_2698_66203">
<rect width="21" height="21" fill="white" transform="translate(0.5 0.500244)"/>
</clipPath>
</defs>
</svg>
