<svg width="562" height="356" viewBox="0 0 562 356" fill="none" xmlns="http://www.w3.org/2000/svg">
<g clip-path="url(#clip0_2601_169656)">
<rect width="562" height="356" rx="16.6667" fill="#6A5AE0"/>
<path opacity="0.1" fill-rule="evenodd" clip-rule="evenodd" d="M389.938 134.805C443.436 134.805 486.806 91.4359 486.806 37.9371C486.806 -15.5616 443.436 -58.9309 389.938 -58.9309C336.439 -58.9309 293.07 -15.5616 293.07 37.9371C293.07 91.4359 336.439 134.805 389.938 134.805Z" fill="#C4D0FB"/>
<path opacity="0.3" fill-rule="evenodd" clip-rule="evenodd" d="M392.556 208.111C485.094 208.111 560.111 133.094 560.111 40.5555C560.111 -51.9828 485.094 -127 392.556 -127C300.017 -127 225 -51.9828 225 40.5555C225 133.094 300.017 208.111 392.556 208.111Z" stroke="#C4D0FB" stroke-width="0.746667"/>
<path opacity="0.1" fill-rule="evenodd" clip-rule="evenodd" d="M48.6249 476C97.1569 476 136.5 436.657 136.5 388.125C136.5 339.593 97.1569 300.25 48.6249 300.25C0.0928268 300.25 -39.2502 339.593 -39.2502 388.125C-39.2502 436.657 0.0928268 476 48.6249 476Z" fill="#C4D0FB"/>
<path opacity="0.3" fill-rule="evenodd" clip-rule="evenodd" d="M51 542.5C134.947 542.5 203 474.447 203 390.5C203 306.553 134.947 238.5 51 238.5C-32.9473 238.5 -101 306.553 -101 390.5C-101 474.447 -32.9473 542.5 51 542.5Z" stroke="#C4D0FB" stroke-width="0.503333"/>
<path d="M389.719 101.691H172.693L124 274.719H438.412L389.719 101.691Z" fill="#9087E5"/>
<path d="M177.519 106.576L135.436 264.838H426.976L384.893 106.576H177.519ZM303.29 107.882C303.499 119.048 293.768 128.51 281.206 128.51C268.644 128.51 258.913 119.038 259.153 107.842L303.29 107.882ZM239.881 262.296L242.144 232.307H320.328L322.591 262.296H239.881ZM324.625 262.296L322.063 230.033H240.409L237.847 262.296H208.934L217.698 196.096H344.814L353.578 262.296H324.625ZM260.947 194.132C261.944 182.317 270.827 173.275 281.266 173.275C291.704 173.275 300.618 182.317 301.585 194.132H260.947ZM424.354 262.296H355.562L346.29 194.132H303.27C302.273 181.291 292.522 171.49 281.206 171.49C269.89 171.49 260.19 181.291 259.143 194.132H216.162L206.89 262.296H138.098L178.576 107.852H257.717C257.398 119.816 267.767 129.985 281.206 129.985C294.646 129.985 305.014 119.816 304.695 107.852H383.837L424.354 262.296Z" fill="white"/>
<path opacity="0.08" d="M218.724 139.047C229.968 139.047 239.083 137.061 239.083 134.61C239.083 132.16 229.968 130.174 218.724 130.174C207.48 130.174 198.365 132.16 198.365 134.61C198.365 137.061 207.48 139.047 218.724 139.047Z" fill="black"/>
<path d="M228.295 82H209.143C205.758 81.9975 202.481 83.191 199.891 85.3698L187.269 95.9579L197.737 108.231L203.909 103.246V134.432H233.529V103.246L239.701 108.231L250.169 95.9579L237.547 85.3698C234.957 83.191 231.68 81.9975 228.295 82Z" fill="#FF8FA2"/>
<path opacity="0.08" d="M227.697 82C227.697 84.2233 223.599 85.988 218.545 85.988C213.49 85.988 209.382 84.1734 209.382 82" fill="black"/>
<path opacity="0.46" d="M233.54 109.197H203.909V120.264H233.54V109.197Z" fill="white"/>
<path opacity="0.08" d="M343.687 139.047C354.931 139.047 364.046 137.061 364.046 134.61C364.046 132.16 354.931 130.174 343.687 130.174C332.444 130.174 323.329 132.16 323.329 134.61C323.329 137.061 332.444 139.047 343.687 139.047Z" fill="black"/>
<path d="M353.269 82H334.116C330.731 81.9975 327.455 83.191 324.864 85.3698L312.242 95.9579L322.711 108.231L328.882 103.246V134.432H358.503V103.246L364.674 108.231L375.143 95.9579L362.521 85.3698C359.93 83.191 356.653 81.9975 353.269 82Z" fill="#FF8FA2"/>
<path opacity="0.08" d="M352.67 82C352.67 84.2233 348.572 85.988 343.507 85.988C338.443 85.988 334.355 84.1734 334.355 82" fill="black"/>
<path opacity="0.46" d="M358.512 109.197H328.882V120.264H358.512V109.197Z" fill="white"/>
<path opacity="0.08" d="M281.206 191.669C292.45 191.669 301.565 189.683 301.565 187.232C301.565 184.782 292.45 182.796 281.206 182.796C269.962 182.796 260.847 184.782 260.847 187.232C260.847 189.683 269.962 191.669 281.206 191.669Z" fill="black"/>
<path d="M290.777 134.612H271.634C268.247 134.612 264.968 135.805 262.372 137.981L249.76 148.569L260.269 160.852L266.44 155.867V187.053H296.071V155.867L302.242 160.852L312.701 148.569L300.039 137.981C297.443 135.805 294.164 134.612 290.777 134.612Z" fill="#FF8FA2"/>
<path opacity="0.08" d="M290.179 134.612C290.179 136.845 286.071 138.659 281.017 138.659C275.962 138.659 271.854 136.845 271.854 134.612" fill="black"/>
<path opacity="0.46" d="M296.021 161.819H266.391V172.886H296.021V161.819Z" fill="white"/>
<path opacity="0.08" d="M281.206 259.424C292.45 259.424 301.565 257.437 301.565 254.987C301.565 252.537 292.45 250.551 281.206 250.551C269.962 250.551 260.847 252.537 260.847 254.987C260.847 257.437 269.962 259.424 281.206 259.424Z" fill="black"/>
<path d="M290.777 202.378H271.634C268.246 202.374 264.966 203.568 262.372 205.748L249.76 216.336L260.269 228.609L266.44 223.624V254.81H296.071V223.624L302.242 228.609L312.701 216.336L300.089 205.748C297.482 203.557 294.182 202.362 290.777 202.378Z" fill="#4E42A9"/>
<path opacity="0.46" d="M290.179 202.378C290.179 204.611 286.071 206.366 281.017 206.366C275.962 206.366 271.854 204.561 271.854 202.378" fill="white"/>
<path opacity="0.08" d="M381.433 216.464C392.677 216.464 401.792 214.478 401.792 212.028C401.792 209.577 392.677 207.591 381.433 207.591C370.19 207.591 361.075 209.577 361.075 212.028C361.075 214.478 370.19 216.464 381.433 216.464Z" fill="black"/>
<path d="M391.005 159.415H371.862C368.478 159.418 365.203 160.611 362.61 162.785L349.998 173.373L360.467 185.646L366.628 180.661V211.847H396.259V180.651L402.43 185.636L412.889 173.373L400.267 162.785C397.671 160.609 394.392 159.416 391.005 159.415Z" fill="#FF8FA2"/>
<path opacity="0.08" d="M390.416 159.415C390.416 161.649 386.318 163.453 381.254 163.453C376.189 163.453 372.101 161.649 372.101 159.415" fill="black"/>
<path opacity="0.46" d="M396.249 186.614H366.618V197.68H396.249V186.614Z" fill="white"/>
<path opacity="0.08" d="M180.978 216.464C192.222 216.464 201.337 214.478 201.337 212.028C201.337 209.577 192.222 207.591 180.978 207.591C169.734 207.591 160.619 209.577 160.619 212.028C160.619 214.478 169.734 216.464 180.978 216.464Z" fill="black"/>
<path d="M190.549 159.415H171.407C168.019 159.416 164.74 160.609 162.145 162.785L149.523 173.373L159.991 185.646L166.162 180.661V211.847H195.793V180.651L201.955 185.636L212.413 173.373L199.791 162.785C197.201 160.613 193.929 159.42 190.549 159.415Z" fill="#FF8FA2"/>
<path opacity="0.08" d="M189.951 159.415C189.951 161.649 185.853 163.453 180.798 163.453C175.744 163.453 171.636 161.639 171.636 159.415" fill="black"/>
<path opacity="0.46" d="M195.794 186.614H166.163V197.68H195.794V186.614Z" fill="white"/>
</g>
<defs>
<clipPath id="clip0_2601_169656">
<rect width="562" height="356" rx="16.6667" fill="white"/>
</clipPath>
</defs>
</svg>
