<svg width="133" height="40" viewBox="0 0 133 40" fill="none" xmlns="http://www.w3.org/2000/svg">
<path d="M65.0926 28.3283C65.3198 28.6853 65.4334 29.0342 65.4334 29.375C65.4334 29.8132 65.2468 30.1783 64.8735 30.4704C64.5165 30.7626 64.0945 30.9086 63.6077 30.9086C63.2669 30.9086 62.9423 30.8275 62.634 30.6652C62.3419 30.5029 62.1065 30.2676 61.928 29.9592L60.4675 27.525C60.2727 27.2004 60.0131 26.9651 59.6885 26.819C59.3639 26.673 58.9257 26.5999 58.374 26.5999C56.67 26.5999 55.185 26.2429 53.9192 25.5288C52.6696 24.7985 51.704 23.7761 51.0224 22.4616C50.3408 21.1309 50 19.5729 50 17.7878C50 16.0026 50.3408 14.4528 51.0224 13.1383C51.704 11.8075 52.6696 10.7851 53.9192 10.0711C55.185 9.35703 56.67 9 58.374 9C60.078 9 61.5548 9.35703 62.8044 10.0711C64.0702 10.7851 65.0439 11.8075 65.7255 13.1383C66.4071 14.4528 66.7479 16.0026 66.7479 17.7878C66.7479 19.6541 66.3747 21.2688 65.6281 22.632C64.8979 23.979 63.8511 24.9852 62.4879 25.6506C63.2831 25.894 63.9241 26.4133 64.411 27.2085L65.0926 28.3283ZM58.374 23.6544C59.8021 23.6544 60.9219 23.1513 61.7333 22.1452C62.5609 21.139 62.9748 19.6865 62.9748 17.7878C62.9748 15.889 62.5691 14.4447 61.7576 13.4548C60.9462 12.4486 59.8183 11.9455 58.374 11.9455C56.9296 11.9455 55.8017 12.4486 54.9903 13.4548C54.1951 14.4447 53.7975 15.889 53.7975 17.7878C53.7975 19.6865 54.2032 21.139 55.0146 22.1452C55.8261 23.1513 56.9458 23.6544 58.374 23.6544Z" fill="white"/>
<path d="M79.0194 14.185C79.5874 14.185 80.0337 14.3392 80.3583 14.6476C80.6991 14.9559 80.8695 15.3778 80.8695 15.9134V24.8472C80.8695 25.3503 80.691 25.756 80.3339 26.0644C79.9931 26.3727 79.5468 26.5269 78.9951 26.5269C78.4758 26.5269 78.0619 26.3808 77.7536 26.0887C77.4452 25.7966 77.2911 25.4071 77.2911 24.9203V24.6768C76.9178 25.2935 76.4228 25.7641 75.8061 26.0887C75.2057 26.4133 74.5241 26.5756 73.7613 26.5756C72.2521 26.5756 71.1242 26.1618 70.3777 25.3341C69.6474 24.4902 69.2822 23.2244 69.2822 21.5366V15.9134C69.2822 15.3778 69.4445 14.9559 69.7691 14.6476C70.1099 14.3392 70.5643 14.185 71.1323 14.185C71.7003 14.185 72.1466 14.3392 72.4712 14.6476C72.7957 14.9559 72.958 15.3778 72.958 15.9134V21.6096C72.958 22.3237 73.1041 22.8511 73.3962 23.1919C73.7045 23.5327 74.1671 23.7031 74.7837 23.7031C75.4978 23.7031 76.0739 23.4597 76.5121 22.9728C76.9665 22.486 77.1937 21.8449 77.1937 21.0497V15.9134C77.1937 15.3778 77.356 14.9559 77.6805 14.6476C78.0051 14.3392 78.4514 14.185 79.0194 14.185Z" fill="white"/>
<path d="M93.2811 22.8268C93.6057 22.8268 93.8654 22.9566 94.0601 23.2163C94.2711 23.4759 94.3766 23.8086 94.3766 24.2143C94.3766 24.4902 94.2954 24.7499 94.1331 24.9933C93.9708 25.2205 93.7436 25.4152 93.4515 25.5775C92.8997 25.8696 92.2587 26.1131 91.5284 26.3078C90.7981 26.4863 90.1247 26.5756 89.508 26.5756C88.2097 26.5756 87.0737 26.324 86.1 25.821C85.1425 25.3179 84.4041 24.6038 83.8848 23.6788C83.3654 22.7375 83.1058 21.634 83.1058 20.3681C83.1058 19.151 83.3573 18.0718 83.8604 17.1305C84.3635 16.1893 85.0613 15.459 85.9539 14.9397C86.8465 14.4041 87.8608 14.1364 88.9968 14.1364C90.0841 14.1364 91.0335 14.3798 91.8449 14.8666C92.6726 15.3373 93.3136 16.0189 93.768 16.9114C94.2224 17.7878 94.4496 18.8183 94.4496 20.003C94.4496 20.36 94.3603 20.6359 94.1818 20.8307C94.0195 21.0092 93.7842 21.0984 93.4759 21.0984H86.6599C86.7735 22.0559 87.0656 22.7537 87.5362 23.1919C88.0068 23.6139 88.6803 23.8248 89.5567 23.8248C90.0273 23.8248 90.4492 23.768 90.8225 23.6544C91.1957 23.5408 91.6096 23.3867 92.064 23.1919C92.2912 23.0945 92.5103 23.0134 92.7212 22.9485C92.9322 22.8673 93.1188 22.8268 93.2811 22.8268ZM89.0941 16.668C88.3963 16.668 87.8364 16.8952 87.4145 17.3496C86.9925 17.7878 86.741 18.4288 86.6599 19.2727H91.358C91.3093 18.4126 91.0903 17.7634 90.7008 17.3253C90.3275 16.8871 89.792 16.668 89.0941 16.668Z" fill="white"/>
<path d="M106.261 22.8268C106.585 22.8268 106.845 22.9566 107.04 23.2163C107.251 23.4759 107.356 23.8086 107.356 24.2143C107.356 24.4902 107.275 24.7499 107.113 24.9933C106.951 25.2205 106.723 25.4152 106.431 25.5775C105.879 25.8696 105.238 26.1131 104.508 26.3078C103.778 26.4863 103.104 26.5756 102.488 26.5756C101.189 26.5756 100.053 26.324 99.0797 25.821C98.1222 25.3179 97.3838 24.6038 96.8645 23.6788C96.3452 22.7375 96.0855 21.634 96.0855 20.3681C96.0855 19.151 96.337 18.0718 96.8401 17.1305C97.3432 16.1893 98.041 15.459 98.9336 14.9397C99.8262 14.4041 100.84 14.1364 101.976 14.1364C103.064 14.1364 104.013 14.3798 104.825 14.8666C105.652 15.3373 106.293 16.0189 106.748 16.9114C107.202 17.7878 107.429 18.8183 107.429 20.003C107.429 20.36 107.34 20.6359 107.162 20.8307C106.999 21.0092 106.764 21.0984 106.456 21.0984H99.6396C99.7532 22.0559 100.045 22.7537 100.516 23.1919C100.987 23.6139 101.66 23.8248 102.536 23.8248C103.007 23.8248 103.429 23.768 103.802 23.6544C104.175 23.5408 104.589 23.3867 105.044 23.1919C105.271 23.0945 105.49 23.0134 105.701 22.9485C105.912 22.8673 106.099 22.8268 106.261 22.8268ZM102.074 16.668C101.376 16.668 100.816 16.8952 100.394 17.3496C99.9723 17.7878 99.7207 18.4288 99.6396 19.2727H104.338C104.289 18.4126 104.07 17.7634 103.68 17.3253C103.307 16.8871 102.772 16.668 102.074 16.668Z" fill="white"/>
<path d="M118.299 23.6301C119.403 23.6301 119.954 24.0926 119.954 25.0176C119.954 25.9264 119.403 26.3808 118.299 26.3808H110.412C109.925 26.3808 109.528 26.2267 109.219 25.9183C108.911 25.61 108.757 25.2448 108.757 24.8229C108.757 24.336 108.927 23.9141 109.268 23.5571L114.964 17.1792H110.29C109.187 17.1792 108.635 16.7248 108.635 15.816C108.635 14.891 109.187 14.4285 110.29 14.4285H117.885C118.388 14.4285 118.786 14.5826 119.078 14.891C119.386 15.1993 119.541 15.5726 119.541 16.0108C119.541 16.4976 119.37 16.9196 119.029 17.2766L113.358 23.6301H118.299Z" fill="white"/>
<path d="M129.738 15.2318C129.884 14.891 130.087 14.6394 130.347 14.4772C130.623 14.3149 130.915 14.2337 131.223 14.2337C131.694 14.2337 132.107 14.3879 132.464 14.6962C132.821 14.9884 133 15.3454 133 15.7673C133 15.9945 132.943 16.2217 132.83 16.4489L126.281 29.8862C126.119 30.227 125.9 30.4786 125.624 30.6408C125.348 30.8194 125.056 30.9086 124.748 30.9086C124.293 30.9086 123.896 30.7626 123.555 30.4704C123.214 30.1783 123.044 29.8213 123.044 29.3994C123.044 29.1397 123.101 28.8963 123.214 28.6691L124.821 25.3341L120.488 16.4489C120.39 16.2217 120.342 16.0026 120.342 15.7917C120.342 15.3535 120.528 14.9802 120.902 14.6719C121.291 14.3636 121.729 14.2094 122.216 14.2094C122.541 14.2094 122.841 14.2986 123.117 14.4772C123.393 14.6394 123.612 14.891 123.774 15.2318L126.793 21.8044L129.738 15.2318Z" fill="white"/>
<mask id="mask0_2601_169867" style="mask-type:alpha" maskUnits="userSpaceOnUse" x="0" y="0" width="40" height="40">
<path d="M0 10C0 4.47715 4.47715 0 10 0H30C35.5228 0 40 4.47715 40 10V30C40 35.5228 35.5228 40 30 40H10C4.47715 40 0 35.5228 0 30V10Z" fill="#6A5AE0"/>
</mask>
<g mask="url(#mask0_2601_169867)">
<path d="M41.1991 30.131C41.1621 35.7404 38.8806 41.1053 34.8564 45.0456C30.8321 48.9858 25.3949 51.1785 19.7406 51.1416C19.449 51.1397 19.163 51.1323 18.8714 51.1195C17.3144 51.0462 15.7701 50.8054 14.2654 50.4015C14.558 50.256 14.8451 50.1105 15.1322 49.9541C15.1377 49.9542 15.1432 49.9488 15.1543 49.9434L15.1598 49.9379C15.4635 49.7762 15.7616 49.6144 16.0544 49.4471C16.1262 49.4039 16.1979 49.3662 16.2697 49.3284C16.5459 49.1665 16.8221 49.0045 17.0928 48.8317C17.1728 48.7893 17.2502 48.7425 17.3248 48.6913C17.5347 48.5671 17.7447 48.432 17.9491 48.2969C18.0928 48.205 18.242 48.1078 18.3801 48.0159C18.5901 47.8753 18.7946 47.7348 18.9992 47.5887C19.1373 47.4968 19.2645 47.4049 19.3972 47.302C19.574 47.1831 19.7455 47.0532 19.9169 46.9234C20.0716 46.8152 20.2209 46.7016 20.3703 46.5825C20.5804 46.4256 20.785 46.2631 20.9897 46.0898C21.0782 46.0249 21.1667 45.9545 21.2552 45.8787C21.4765 45.7 21.6923 45.5158 21.9081 45.3262C22.0243 45.2287 22.1405 45.1312 22.2567 45.0228C22.384 44.9145 22.5057 44.8061 22.6275 44.6923C22.86 44.4864 23.087 44.2696 23.314 44.0527C23.3444 44.0284 23.3722 44.0012 23.3971 43.9714C23.6185 43.7654 23.8345 43.5485 24.045 43.3315C24.1945 43.1906 24.333 43.0441 24.466 42.8976C24.6266 42.7404 24.7762 42.5776 24.9258 42.4148C25.0145 42.3226 25.0976 42.2304 25.1753 42.1381C25.3748 41.9211 25.5688 41.6985 25.7628 41.476C25.8626 41.3621 25.9624 41.2426 26.0567 41.1232C26.2009 40.9603 26.3395 40.7975 26.4671 40.6291C26.6002 40.4717 26.7278 40.3088 26.85 40.1458C26.9664 40.0047 27.0774 39.858 27.1829 39.7168C27.3272 39.5322 27.4659 39.3475 27.5992 39.1573C27.7325 38.9672 27.8768 38.7771 28.0102 38.5814C28.0763 38.4962 28.1375 38.4073 28.1935 38.3152C28.3823 38.0435 28.5657 37.7663 28.7436 37.4891C28.9714 37.1467 29.1883 36.7988 29.3942 36.4454C29.4887 36.2931 29.5778 36.1409 29.6668 35.9886C30.3885 34.745 31.0327 33.4586 31.5958 32.1367C31.6796 31.9517 31.7578 31.7666 31.8306 31.5761C31.9199 31.3747 31.9983 31.1678 32.0767 30.9609C32.1438 30.7921 32.211 30.6179 32.2727 30.4436C32.3455 30.253 32.4128 30.057 32.48 29.8664C32.7267 29.1693 32.9514 28.4666 33.1487 27.7529C33.1994 27.5731 33.25 27.3988 33.2952 27.2189C33.329 27.1045 33.3572 26.9955 33.3855 26.8811L33.5212 26.3252C33.7022 25.5677 33.8558 24.8045 33.9874 24.0303L34.0734 23.5068C34.0849 23.425 34.0964 23.3487 34.108 23.2669C34.1423 23.0597 34.1712 22.8525 34.1946 22.6452C34.2351 22.3343 34.2757 22.0235 34.3053 21.7125C34.3168 21.6307 34.3228 21.5489 34.3289 21.4671C34.3523 21.2543 34.3702 21.0361 34.3881 20.8233C34.406 20.6106 34.4185 20.3869 34.4309 20.1686C34.4429 20.0159 34.4494 19.8631 34.456 19.7048C34.4813 19.2028 34.4956 18.7007 34.4989 18.1986C34.5006 17.942 34.5022 17.691 34.4929 17.4398C34.4937 17.3088 34.4946 17.1833 34.4899 17.0522C34.4764 16.5991 34.4573 16.1514 34.4272 15.7036L34.4273 15.6872C34.4226 15.578 34.4178 15.4688 34.4075 15.3596C34.3875 15.0592 34.3619 14.7643 34.3363 14.4639C34.3366 14.4545 34.3348 14.4452 34.331 14.4366C35.0679 15.1112 35.7563 15.8362 36.3911 16.6062L36.4074 16.6227C36.4105 16.6257 36.4124 16.6295 36.4129 16.6336C39.5464 20.4413 41.2395 25.2159 41.1991 30.131Z" fill="#FF8FA2"/>
<path d="M34.4782 18.1009C34.4383 24.6301 32.6217 31.0271 29.2207 36.6146C25.8198 42.2022 20.9609 46.7725 15.1583 49.842C15.1511 49.8503 15.1414 49.856 15.1307 49.8582L15.1252 49.8637C14.8384 50.0146 14.5516 50.1601 14.2649 50.3056C12.4742 49.8244 10.7561 49.1081 9.15605 48.1759C7.9985 47.5037 6.90683 46.7252 5.89538 45.8509C6.08907 45.6502 6.27728 45.4495 6.46551 45.2433L6.47099 45.2379C6.47102 45.2324 6.47661 45.227 6.48214 45.2216L6.48759 45.2216C12.5456 38.6226 15.9236 30.0265 15.9682 21.0963C15.9943 17.2495 15.4073 13.4227 14.2287 9.75803L14.2233 9.758C14.2234 9.74708 14.2179 9.73613 14.218 9.72521L14.2125 9.72517C14.2094 9.71637 14.2076 9.70716 14.2072 9.69784C14.0995 9.36415 13.9862 9.03044 13.8675 8.70213L20.0123 8.74248C25.3146 8.77001 30.4148 10.7662 34.3105 14.3387C34.3518 14.7539 34.382 15.1689 34.4067 15.5894C34.4618 16.4195 34.4838 17.2548 34.4782 18.1009Z" fill="#9087E5"/>
<path d="M16.0578 21.0967C16.0554 21.4624 16.0475 21.8281 16.0343 22.1882C16.0273 22.4229 16.0149 22.6521 16.0024 22.8867C15.9526 23.8253 15.8647 24.7582 15.7386 25.6853C15.7098 25.9253 15.6755 26.1598 15.6358 26.3943C15.5957 26.6833 15.5448 26.9668 15.4938 27.2558C15.4484 27.5284 15.3976 27.7956 15.3412 28.0681C15.3299 28.1336 15.3131 28.199 15.3018 28.2644C15.2567 28.4879 15.2061 28.7168 15.1555 28.9403C14.8918 30.1019 14.5693 31.2494 14.1895 32.3784C14.1171 32.6017 14.0394 32.8195 13.9616 33.0319C13.9548 33.0581 13.9455 33.0837 13.9339 33.1082C13.856 33.3315 13.7783 33.5438 13.6951 33.7616C13.6728 33.827 13.6451 33.8978 13.6174 33.9686C13.5286 34.2027 13.4343 34.4313 13.3401 34.66C13.2348 34.9213 13.124 35.1826 13.0078 35.4384C12.8915 35.7051 12.7698 35.9718 12.6481 36.2384C12.5319 36.4833 12.4104 36.7282 12.2943 36.9676C12.1672 37.2233 12.0401 37.4736 11.9076 37.7183C11.7751 37.9631 11.6426 38.2133 11.5046 38.4581C11.3667 38.7028 11.2287 38.9475 11.0908 39.1868C10.9529 39.4261 10.8041 39.6708 10.6553 39.91C10.5064 40.1492 10.3577 40.3829 10.2034 40.6166C9.90042 41.0841 9.58653 41.546 9.26181 41.9969C8.93709 42.4479 8.59605 42.8932 8.25505 43.3332C7.73817 43.9793 7.20325 44.609 6.65022 45.2222L6.64476 45.2222C6.63927 45.2276 6.63927 45.2276 6.63924 45.2331C6.63923 45.2345 6.63867 45.2359 6.63763 45.2369C6.63659 45.2379 6.63522 45.2385 6.63375 45.2385C6.44698 45.4447 6.25475 45.6509 6.06256 45.8516C5.20819 45.1069 4.41475 44.2948 3.68988 43.4233C3.68441 43.4129 3.67707 43.4036 3.66825 43.3958C0.486232 39.5677 -1.23829 34.7352 -1.19942 29.7554L-1.06053 8.604L13.9741 8.70273C14.092 9.03102 14.2043 9.35928 14.3057 9.69293L14.3112 9.69841C14.3116 9.70772 14.3134 9.71694 14.3164 9.72575L14.3219 9.72578L14.3218 9.74215C14.3214 9.74511 14.3217 9.74812 14.3226 9.75096C14.3236 9.75379 14.3251 9.75639 14.3271 9.75856L14.3326 9.7586C14.3373 9.77945 14.3445 9.79965 14.354 9.81878L14.418 10.0321C14.5997 10.6119 14.7649 11.1971 14.9137 11.793C15.0201 12.1922 15.1156 12.6022 15.2056 13.0122C15.3698 13.7557 15.512 14.5154 15.6324 15.2859C15.6584 15.4716 15.69 15.652 15.7106 15.8377C15.773 16.2912 15.8301 16.7446 15.8761 17.2034C15.8968 17.3728 15.912 17.5476 15.9218 17.7169C15.9525 18.0337 15.9722 18.3559 15.9919 18.6726C16.0412 19.4753 16.0631 20.2834 16.0578 21.0967Z" fill="#C4D0FB"/>
<path d="M0 10C0 4.47715 4.47715 0 10 0H30C35.5228 0 40 4.47715 40 10V25.7143C40 31.2371 35.5228 35.7143 30 35.7143H10C4.47715 35.7143 0 31.2371 0 25.7143V10Z" fill="white"/>
<mask id="mask1_2601_169867" style="mask-type:alpha" maskUnits="userSpaceOnUse" x="9" y="5" width="22" height="25">
<path fill-rule="evenodd" clip-rule="evenodd" d="M19.3603 24.3501C20.1025 24.3161 20.8324 24.1994 21.5367 24.0055L22.5304 24.9771C23.4656 25.8915 24.9852 25.895 25.9246 24.9848C26.8639 24.0746 26.8672 22.5954 25.932 21.6809L24.8038 20.5777C24.5978 20.3762 24.3634 20.219 24.1131 20.106C23.379 19.5669 22.334 19.6306 21.4912 20.0395C20.777 20.3859 19.9902 20.5879 19.179 20.625C17.7436 20.6906 16.3345 20.2351 15.2273 19.3475C14.1201 18.4599 13.3943 17.2041 13.1918 15.8256C12.9893 14.447 13.3247 13.0449 14.1325 11.8932C14.9402 10.7415 16.1621 9.92319 17.5594 9.59814C18.9567 9.27308 20.4289 9.46468 21.6881 10.1355C22.9474 10.8063 23.9032 11.9081 24.3686 13.2255C24.6138 13.9194 24.7137 14.6468 24.6699 15.3667C24.6046 16.4393 25.0207 17.601 26.0117 18.0165C26.9709 18.4187 28.0987 17.9819 28.3204 16.9656C28.6771 15.3304 28.576 13.6203 28.0097 12.0175C27.2339 9.8219 25.6409 7.98559 23.5422 6.86757C21.4434 5.74955 18.9898 5.43021 16.661 5.97197C14.3322 6.51373 12.2956 7.87765 10.9494 9.79708C9.60321 11.7165 9.0442 14.0534 9.38166 16.351C9.71912 18.6486 10.9288 20.7416 12.7742 22.2209C14.6195 23.7002 16.9679 24.4594 19.3603 24.3501ZM26.6212 26.0085C25.682 26.9186 25.6784 28.3978 26.6134 29.3122C27.5485 30.2265 29.0682 30.2297 30.0074 29.3196C30.9466 28.4095 30.9502 26.9303 30.0151 26.016C29.08 25.1016 27.5604 25.0984 26.6212 26.0085Z" fill="#6A5AE0"/>
</mask>
<g mask="url(#mask1_2601_169867)">
<path fill-rule="evenodd" clip-rule="evenodd" d="M22.3078 37.568L41.7576 18.6124L37.5522 14.6489L15.2988 36.5341L22.3078 37.568Z" fill="#6A5AE0"/>
<path fill-rule="evenodd" clip-rule="evenodd" d="M18.4875 32.5181L37.3479 14.5263L33.27 10.7644L11.6909 31.5367L18.4875 32.5181Z" fill="#6A5AE0"/>
<path fill-rule="evenodd" clip-rule="evenodd" d="M12.8145 31.7518L34.9774 10.1199L31.0928 6.07614L8.92994 27.708L12.8145 31.7518Z" fill="#6A5AE0"/>
<path fill-rule="evenodd" clip-rule="evenodd" d="M8.81298 28.2451L30.9339 6.55201L25.1859 4.16064L5.67773 23.2916L8.81298 28.2451Z" fill="#6A5AE0"/>
<path fill-rule="evenodd" clip-rule="evenodd" d="M5.67773 23.5836L25.7223 4.16064L14.9841 5.20116L5.67773 15.0861V23.5836Z" fill="#6A5AE0"/>
</g>
</g>
</svg>
