<svg width="24" height="25" viewBox="0 0 24 25" fill="none" xmlns="http://www.w3.org/2000/svg">
<g clip-path="url(#clip0_2606_178839)">
<path d="M4 7.98779H7C7.26522 7.98779 7.51957 7.88244 7.70711 7.6949C7.89464 7.50736 8 7.25301 8 6.98779V5.98779C8 5.45736 8.21071 4.94865 8.58579 4.57358C8.96086 4.19851 9.46957 3.98779 10 3.98779C10.5304 3.98779 11.0391 4.19851 11.4142 4.57358C11.7893 4.94865 12 5.45736 12 5.98779V6.98779C12 7.25301 12.1054 7.50736 12.2929 7.6949C12.4804 7.88244 12.7348 7.98779 13 7.98779H16C16.2652 7.98779 16.5196 8.09315 16.7071 8.28069C16.8946 8.46822 17 8.72258 17 8.98779V11.9878C17 12.253 17.1054 12.5074 17.2929 12.6949C17.4804 12.8824 17.7348 12.9878 18 12.9878H19C19.5304 12.9878 20.0391 13.1985 20.4142 13.5736C20.7893 13.9487 21 14.4574 21 14.9878C21 15.5182 20.7893 16.0269 20.4142 16.402C20.0391 16.7771 19.5304 16.9878 19 16.9878H18C17.7348 16.9878 17.4804 17.0931 17.2929 17.2807C17.1054 17.4682 17 17.7226 17 17.9878V20.9878C17 21.253 16.8946 21.5074 16.7071 21.6949C16.5196 21.8824 16.2652 21.9878 16 21.9878H13C12.7348 21.9878 12.4804 21.8824 12.2929 21.6949C12.1054 21.5074 12 21.253 12 20.9878V19.9878C12 19.4574 11.7893 18.9487 11.4142 18.5736C11.0391 18.1985 10.5304 17.9878 10 17.9878C9.46957 17.9878 8.96086 18.1985 8.58579 18.5736C8.21071 18.9487 8 19.4574 8 19.9878V20.9878C8 21.253 7.89464 21.5074 7.70711 21.6949C7.51957 21.8824 7.26522 21.9878 7 21.9878H4C3.73478 21.9878 3.48043 21.8824 3.29289 21.6949C3.10536 21.5074 3 21.253 3 20.9878V17.9878C3 17.7226 3.10536 17.4682 3.29289 17.2807C3.48043 17.0931 3.73478 16.9878 4 16.9878H5C5.53043 16.9878 6.03914 16.7771 6.41421 16.402C6.78929 16.0269 7 15.5182 7 14.9878C7 14.4574 6.78929 13.9487 6.41421 13.5736C6.03914 13.1985 5.53043 12.9878 5 12.9878H4C3.73478 12.9878 3.48043 12.8824 3.29289 12.6949C3.10536 12.5074 3 12.253 3 11.9878V8.98779C3 8.72258 3.10536 8.46822 3.29289 8.28069C3.48043 8.09315 3.73478 7.98779 4 7.98779" stroke="white" stroke-width="2" stroke-linecap="round" stroke-linejoin="round"/>
</g>
<defs>
<clipPath id="clip0_2606_178839">
<rect width="24" height="24" fill="white" transform="translate(0 0.987793)"/>
</clipPath>
</defs>
</svg>
