<svg width="32" height="32" viewBox="0 0 32 32" fill="none" xmlns="http://www.w3.org/2000/svg">
<circle cx="16" cy="16" r="16" fill="#6A5AE0"/>
<g clip-path="url(#clip0_2601_169714)">
<path d="M12.6667 12.6667C12.6667 12.0037 12.9739 11.3678 13.5209 10.899C14.0679 10.4301 14.8098 10.1667 15.5833 10.1667H16.4167C17.1902 10.1667 17.9321 10.4301 18.4791 10.899C19.026 11.3678 19.3333 12.0037 19.3333 12.6667C19.364 13.2078 19.2181 13.7442 18.9175 14.1951C18.6169 14.646 18.1779 14.987 17.6667 15.1667C17.1554 15.4064 16.7165 15.8611 16.4159 16.4623C16.1153 17.0635 15.9693 17.7787 16 18.5001" stroke="white" stroke-width="1.5" stroke-linecap="round" stroke-linejoin="round"/>
<path d="M16 21.8333V21.8416" stroke="white" stroke-width="1.5" stroke-linecap="round" stroke-linejoin="round"/>
</g>
<defs>
<clipPath id="clip0_2601_169714">
<rect width="20" height="20" fill="white" transform="translate(6 6)"/>
</clipPath>
</defs>
</svg>
